<svg id="carrot" xmlns="http://www.w3.org/2000/svg" width="217.71" height="1181.167" viewBox="0 0 217.71 1181.167">
  <path id="Path_95" data-name="Path 95" d="M2626.48,459.456c-1.544,6.695-5.3,14.216-7.557,21.532,3.4,20,6.075,40.09,6.874,60.406.439,11.212.616,22.519.566,33.852a37.731,37.731,0,0,1,2.15-3.117c.009-.068.014-.134.023-.2a6.645,6.645,0,0,1,1.553-3.65c-.486-4.366-.613-8.625-.684-12.154-.5-24.979,2.887-50.025,5.993-74.756.718-5.717,1.424-11.435,2.085-17.157-2.149-7.917-4.384-15.638-6.961-23.424A149.444,149.444,0,0,1,2626.48,459.456Z" transform="translate(-2506.912 -239.944)" fill="none"/>
  <path id="Path_96" data-name="Path 96" d="M2675.27,446.271c-2.47,8.651-6.922,16.906-10.045,25.529q.266,14.852.239,29.7c-.056,16.348,1.3,32.823.078,49.134-.369,4.937-.855,9.858-1.412,14.771,3.554-.512,7.538,1.633,7.352,6.3-.045,1.121-.138,2.234-.25,3.345q1.569-6.623,3.106-13.255c4.589-19.9,9.674-39.937,13.34-60.146-3.095-17.981-8.748-43.981-9.848-62.949Q2676.54,442.488,2675.27,446.271Z" transform="translate(-2522.089 -239.245)" fill="none"/>
  <path id="Path_97" data-name="Path 97" d="M2571.33,230.564c.1-1.427,2.5-1.273,2.507.143.349,50.358,13.292,99.283,21.719,148.772,2.259-7.315,6.013-14.836,7.557-21.532a149.489,149.489,0,0,0,4.041-18.67c2.577,7.787,4.811,15.507,6.961,23.424.711-6.133,1.373-12.272,1.942-18.422.745-8.08,1.936-16.37,1.416-24.5-3.368-52.82-9.958-104.582,8.379-154.336a332.5,332.5,0,0,0-.107,112.87,13.626,13.626,0,0,0,.453,1.841c1.359,9.329,2.867,18.667,4.207,28.109,2.5,17.642-.223,35.182-2.713,52.679q-.527,3.7-1.046,7.4c.017.883.022,1.766.037,2.649,3.123-8.623,7.575-16.878,10.045-25.529q1.262-3.782,2.56-7.567c1.1,18.968,6.753,44.967,9.848,62.949,1.607-8.866,2.947-17.765,3.841-26.7,1.539-15.322,2.932-30.58,2.943-45.991.008-7.907-.85-15.868-.558-23.764.166-4.492-1.387-8.586-1.463-13.019a.789.789,0,0,1,1.573-.122c.538,5.157,2.465,10.365,3.307,15.537a198.66,198.66,0,0,1,1.978,23.621c.585,14.2,1.008,28.439.079,42.629-.2,3.009-.414,6.013-.63,9.016a171.683,171.683,0,0,1,9.178-22.181c9.6-19.2,29.767-38.411,31.694-60.5,1.73-19.856-9.377-4.708-16.2-13.994-1.8-2.453,2.7-16.884,2.841-20.367.342-8,.552-18.868-9.19-20.781-3.562-.7-4.057,4.07-8.809,1.554-1.871-.991-4.06-6.932-5.049-8.919-.072-.147-.138-.3-.21-.448.292-5.185.349-10.44.116-15.811-2.04-24.463-12.961-47.493-19.9-70.8-2.819-9.476-4.521-13.924-15.642-9.878-10.565,3.843-22.088,21.129-24.969,31.692-4.8,14.407,1.922,30.734-.96,45.14-1.59,5.564-4.49,7.195-5.99,13.032-.833-2.122-1.7-4.231-2.653-6.309-8.1-17.09-11.771-37.729-24.8-52.1-10.943-12.065-20.324-11.452-20.338,6.934,0,10.586,7.684,19.23,10.566,28.833,3.84,16.328-3.844,17.288-7.684,30.734-2.882,13.446,6.722,25.932,9.6,38.417,3.844,15.367-4.8,17.288-5.762,29.773-.959,7.683,4.8,17.288,7.684,24.971,5.844,15.586,12.136,32.046,20.045,47.311C2577,329.285,2567.909,280.506,2571.33,230.564Z" transform="translate(-2483.547 -138.437)" fill="#546d29"/>
  <path id="Path_98" data-name="Path 98" d="M2577.82,1640.47c2.8,9.8,6.522,18.689,12.313,26.677Z" transform="translate(-2493.113 -642.712)" fill="#f76400"/>
  <path id="Path_99" data-name="Path 99" d="M2612.645,1039.492a9.179,9.179,0,0,1,2.431,5.405,35.984,35.984,0,0,1,2.394,12.994c0,16.258-10.335,29.44-23.09,29.44s-23.087-13.183-23.087-29.44a36.577,36.577,0,0,1,1.57-10.614q-11.9,2.8-23.655,6.21.144,1.6.146,3.25c0,16.258-10.335,29.439-23.086,29.439-9.488,0-17.631-7.3-21.182-17.733a335.333,335.333,0,0,0-43.678,20.468c-1.275.723-2.516,1.485-3.776,2.226,1.914,12.432,4.26,24.907,6.812,37.184a211.566,211.566,0,0,1,26.736-5.644c13.247-1.93,26.806-3.562,40.214-3.256,11.629.267,25.293.148,35.625,6.142,2.057,1.193,1.781,4.851-.776,5.262-11.443,1.836-23.512-.877-35.051-1.221-13.475-.4-26.908-.648-40.327.987a253.072,253.072,0,0,0-25.042,4.235c1.9,8.874,3.891,17.618,5.875,26.141,18.636-4.03,37.943-5.587,56.773-5.775a516.728,516.728,0,0,1,70.228,3.975c15.183,1.93,30.535,3.921,45.586,7.031,2.183-21.364,4.091-42.728,5.549-64.093.937-20.624,5.127-44.1,7.454-67.594-2.3.132-4.609.282-6.907.478C2637.755,1036.065,2625.16,1037.52,2612.645,1039.492Zm-35.7,58.516c-4.648,17.108-31.581,16.829-36.486-.062a.846.846,0,0,1,1.539-.65c3.632,6.117,9.558,9.867,16.815,9.842,6.764-.022,14.02-2.644,16.055-9.7A1.078,1.078,0,0,1,2576.947,1098.008Z" transform="translate(-2452.762 -439.274)" fill="#f76400"/>
  <path id="Path_100" data-name="Path 100" d="M2538.973,1232.734c-18.273.554-37.7,1.519-56.7,4.53,2.724,11.55,5.366,22.595,7.693,32.9q8.066-1.014,16.281-1.509c15.824-.971,31.675-1.092,47.521-.577,13.45.439,29.319-1.105,42.25,2.977a1.388,1.388,0,0,1-.1,2.547c-12.684,4-28.354,1.816-41.528,1.844-15.031.032-30.1.035-45.113.916-5.836.344-11.73.783-17.639,1.36,1.767,8.143,3.283,15.756,4.406,22.678.256,1.46.52,2.936.782,4.409,1.576-.214,3.151-.425,4.733-.605,15.931-1.807,35.281-5.153,50.926-.665a1.22,1.22,0,0,1,.124,2.331c-15.1,4.394-32.5,2.274-48.131,3.95q-3.314.357-6.621.778,2.076,11.59,4.316,23.569c2.274-.438,4.553-.844,6.843-1.19,13.59-2.055,30.21-5.382,43.695-1.813a1.729,1.729,0,0,1-.07,3.313c-6.938,1.9-14.64,1.571-21.793,2.155-7.707.629-15.36,1.456-23.005,2.61-1.528.231-3.05.484-4.57.74,2.228,11.7,4.6,23.6,7.147,35.591q9.066-2.515,18.422-4.2a327.135,327.135,0,0,1,39.622-4.693c10.754-.624,23.307-2.361,33.815.557,1.986.551,2.991,3.781.476,4.49-10.565,2.977-22.561,1.891-33.467,2.634-11.773.8-23.57,1.939-35.228,3.822-7.319,1.181-14.758,2.585-22.147,4.344q2.3,10.543,4.787,21.125c4.031-1.26,8.1-2.4,12.222-3.37a193.772,193.772,0,0,1,31.187-4.961c7.9-.544,17.637-2.18,25.169.814a1.646,1.646,0,0,1-.051,3.024c-7.949,3.233-18.292,2.226-26.787,3.005a255.944,255.944,0,0,0-26.461,3.7q-7.061,1.4-13.97,3.3c2.477,10.261,5.107,20.5,7.915,30.662a103.113,103.113,0,0,1,10.99-2.309c9.128-1.381,22.335-4.35,31.126-.73a2.043,2.043,0,0,1,.166,3.739c-4.421,1.865-9.1,1.524-13.844,1.76a155.608,155.608,0,0,0-16.3,1.522q-5.309.827-10.468,1.986c8.419,29.625,18.386,58.374,30.47,84.415a66.539,66.539,0,0,0,7.825,8.95c2.161,35.623,7.073,71.1,4.9,106.882-7.721-.831-16.6,1.905-23.129,4.46a40.1,40.1,0,0,0-22.651,21.827c-1.544,3.7,1.671,7.437,5.264,7.8,19.561,1.982,36.086-7.542,48.562-21.964a5.251,5.251,0,0,0,.686-1.036,5.092,5.092,0,0,0,2.089-3.873c3.1-35.143.672-71.005-4.527-106.191,7.231,3.74,13.292,4.651,18.382,3.4q1.1,8.071,2.136,16.146.439,9,1.2,18.05c1.851,21.947,5.262,43.679,7.935,65.519-14.074,3.068-25.628,14.839-29.981,28.3-1.328,4.113,1.913,9.449,6.747,8.266,13.574-3.321,23.562-13.267,33.123-22.884.042-.044.078-.09.121-.134a5.152,5.152,0,0,0,3.34-4.9c-.785-26.03-5.329-52.541-8.846-78.309-1.669-12.209-3.542-24.4-5.526-36.562,16.117-18.177,17.071-66.885,19.977-90.152,8.135-71.579,18.715-143.157,26.216-214.736-15.344-1.3-30.651-3.233-46.016-4.266C2583.613,1233.325,2561.306,1232.05,2538.973,1232.734Z" transform="translate(-2461.035 -505.76)" fill="#f76400"/>
  <path id="Path_101" data-name="Path 101" d="M2500.778,1046.1c-.02-.492-.059-.979-.059-1.477,0-16.258,10.338-29.438,23.09-29.438,7.042,0,13.336,4.031,17.571,10.37a9.155,9.155,0,0,1,2.966,5.068q16.7-4.853,33.781-8.413a19.959,19.959,0,0,1,13.793-5.87,18.647,18.647,0,0,1,8.154,1.9c2.437-.378,4.87-.76,7.307-1.1,14.5-2,29.536-3.921,44.561-4.875-9.812-2.186-19.651-4.308-29.527-6.173-24.165-4.57-49.5-6.553-74.066-7.448-33.8-1.231-67.187,1.987-97.856,14.221-.732,17.954.669,37.1,3.286,56.517.814-.452,1.624-.906,2.437-1.352C2470.561,1060.158,2485.513,1052.639,2500.778,1046.1Z" transform="translate(-2450.301 -427.152)" fill="#f76400"/>
  <path id="Path_102" data-name="Path 102" d="M2608.936,900.04c-.019.112-.04.227-.059.341a5.582,5.582,0,0,1-1.452,2.991,24.928,24.928,0,0,0,2.782-.388c.124-.782.244-1.564.354-2.347A6.535,6.535,0,0,1,2608.936,900.04Z" transform="translate(-2503.052 -394.129)" fill="#f76400"/>
  <path id="Path_103" data-name="Path 103" d="M2567.956,904.792a4.808,4.808,0,0,1-4.3,3.573,19.162,19.162,0,0,1-2.158.079,5.214,5.214,0,0,1-3.41-1.262,36.027,36.027,0,0,1-11.16-1.333,4.5,4.5,0,0,1-3.137-3.43c-.4-3.928-.284-6.942.577-9.508-.188-3.754-.25-7.5-.219-11.23-8.565-.585-17.147-.9-25.729-.721a206.491,206.491,0,0,0-22.712,1.475c-20.191,11.6-32.274,29.591-38.774,51.366.364-.122.721-.256,1.087-.377a262.934,262.934,0,0,1,48.031-11.288c34.08-4.455,67.485.153,100.88,7.207,2.932.619,2.5,5.176-.56,4.694a323.876,323.876,0,0,0-98.635-.029,245.949,245.949,0,0,0-47.012,11.738q-3.651,1.327-7.271,2.745c-.993,5.521-1.688,11.234-2.147,17.085,29.527-12.256,64.114-14.289,95.079-12.87,24.857,1.137,48.74,5.76,73.256,9.4,11.885,1.764,23.745,3.646,35.605,5.577.366.059.734.129,1.1.191,1.413-25.5-.689-50.307-12.96-70.758-.535-.864-1.117-1.671-1.682-2.5-19.331-2.55-38.523-5.844-57.414-8.537C2580.6,894.35,2575.356,901.291,2567.956,904.792Z" transform="translate(-2450.64 -387.707)" fill="#f76400"/>
  <path id="Path_104" data-name="Path 104" d="M2508.825,953.958a323.874,323.874,0,0,1,98.635.029c3.056.482,3.492-4.076.56-4.694-33.4-7.054-66.8-11.663-100.88-7.207a262.874,262.874,0,0,0-48.031,11.288c-.366.121-.724.256-1.087.377a134.218,134.218,0,0,0-3.48,14.69q3.621-1.41,7.271-2.745A245.9,245.9,0,0,1,2508.825,953.958Z" transform="translate(-2451.725 -407.655)" fill="#e24b00"/>
  <path id="Path_105" data-name="Path 105" d="M2619.4,998.2c-24.517-3.641-48.4-8.264-73.256-9.4-30.965-1.418-65.552.614-95.079,12.87-.2,2.588-.371,5.2-.478,7.845,30.669-12.234,64.058-15.452,97.856-14.221,24.562.9,49.9,2.878,74.066,7.448,9.876,1.865,19.716,3.987,29.527,6.173-15.025.954-30.065,2.873-44.561,4.875-2.437.336-4.871.717-7.307,1.1a24.137,24.137,0,0,1,9.421,8.464c.242.211.469.436.69.67,12.515-1.974,25.109-3.432,37.735-4.505,2.3-.2,4.6-.346,6.907-.478q.46-4.655.808-9.3c.025-.345.056-.689.082-1.034q.168-2.369.295-4.731c-.366-.062-.734-.132-1.1-.191Q2637.22,1000.873,2619.4,998.2Z" transform="translate(-2450.397 -423.797)" fill="#e24b00"/>
  <path id="Path_106" data-name="Path 106" d="M2504.383,1080.421a36.164,36.164,0,0,1-1.849-10.228c-15.264,6.545-30.217,14.063-44.561,21.937-.813.446-1.623.9-2.437,1.353q.65,4.807,1.393,9.631c1.26-.74,2.5-1.5,3.777-2.226A336.974,336.974,0,0,1,2504.383,1080.421Z" transform="translate(-2452.058 -451.254)" fill="#e24b00"/>
  <path id="Path_107" data-name="Path 107" d="M2625.656,1034.23q-17.052,3.536-33.781,8.413a8.765,8.765,0,0,1,.154,1.006,35.592,35.592,0,0,1,2.249,9.746q11.759-3.4,23.655-6.21A29.828,29.828,0,0,1,2625.656,1034.23Z" transform="translate(-2497.831 -439.18)" fill="#e24b00"/>
  <path id="Path_108" data-name="Path 108" d="M2534.635,1172.5c11.539.343,23.607,3.057,35.051,1.221,2.558-.411,2.834-4.069.776-5.262-10.332-5.995-24-5.875-35.625-6.143-13.408-.307-26.967,1.325-40.214,3.256a211.569,211.569,0,0,0-26.736,5.644q.68,3.264,1.379,6.505a253.06,253.06,0,0,1,25.042-4.235C2507.726,1171.853,2521.157,1172.1,2534.635,1172.5Z" transform="translate(-2456.205 -482.171)" fill="#e24b00"/>
  <path id="Path_109" data-name="Path 109" d="M2535.576,1216.175c-18.83.188-38.137,1.744-56.773,5.775q1.156,4.958,2.3,9.811c19-3.01,38.427-3.976,56.7-4.53,22.335-.681,44.643.591,66.919,2.088,15.366,1.033,30.673,2.969,46.016,4.266.225-2.133.43-4.269.65-6.4-15.051-3.109-30.4-5.1-45.586-7.031A515.429,515.429,0,0,0,2535.576,1216.175Z" transform="translate(-2459.87 -500.255)" fill="#e24b00"/>
  <path id="Path_110" data-name="Path 110" d="M2558.28,1293.255c13.174-.028,28.844,2.151,41.528-1.844a1.388,1.388,0,0,0,.1-2.547c-12.932-4.083-28.8-2.537-42.25-2.977-15.847-.514-31.7-.394-47.521.577q-8.209.5-16.281,1.509.869,3.853,1.672,7.559c5.909-.578,11.8-1.017,17.639-1.36C2528.175,1293.295,2543.248,1293.288,2558.28,1293.255Z" transform="translate(-2464.924 -523.568)" fill="#e24b00"/>
  <path id="Path_111" data-name="Path 111" d="M2559.957,1340.62a1.22,1.22,0,0,0-.124-2.331c-15.645-4.488-35-1.142-50.926.665-1.582.18-3.157.391-4.733.605q.511,2.879,1.03,5.789,3.309-.42,6.621-.778C2527.461,1342.9,2544.858,1345.018,2559.957,1340.62Z" transform="translate(-2468.388 -540.51)" fill="#e24b00"/>
  <path id="Path_112" data-name="Path 112" d="M2540.907,1385.69c7.153-.584,14.854-.256,21.792-2.155a1.729,1.729,0,0,0,.071-3.313c-13.484-3.569-30.1-.242-43.695,1.813-2.291.346-4.57.751-6.843,1.19q.545,2.9,1.1,5.816c1.519-.256,3.042-.51,4.57-.74C2525.543,1387.145,2533.2,1386.314,2540.907,1385.69Z" transform="translate(-2471.093 -554.81)" fill="#e24b00"/>
  <path id="Path_113" data-name="Path 113" d="M2583.507,1441.61c10.906-.743,22.9.344,33.467-2.634,2.516-.709,1.51-3.939-.476-4.49-10.509-2.918-23.062-1.182-33.815-.557a327.316,327.316,0,0,0-39.623,4.693q-9.34,1.7-18.421,4.2.738,3.473,1.494,6.953c7.389-1.76,14.828-3.163,22.148-4.344C2559.939,1443.55,2571.737,1442.414,2583.507,1441.61Z" transform="translate(-2475.258 -573.006)" fill="#e24b00"/>
  <path id="Path_114" data-name="Path 114" d="M2575.844,1483.968c8.495-.78,18.838.228,26.787-3.005a1.646,1.646,0,0,0,.051-3.024c-7.532-2.994-17.271-1.358-25.169-.814a193.758,193.758,0,0,0-31.187,4.961c-4.12.975-8.191,2.11-12.222,3.37.433,1.838.866,3.675,1.311,5.513q6.9-1.908,13.97-3.3A253.288,253.288,0,0,1,2575.844,1483.968Z" transform="translate(-2478.435 -587.558)" fill="#e24b00"/>
  <path id="Path_115" data-name="Path 115" d="M2576.427,1544.646c4.744-.236,9.423.1,13.844-1.76a2.043,2.043,0,0,0-.166-3.739c-8.79-3.62-22-.651-31.126.73a102.9,102.9,0,0,0-10.99,2.309q.823,2.99,1.671,5.969,5.167-1.165,10.468-1.986A155.212,155.212,0,0,1,2576.427,1544.646Z" transform="translate(-2483.098 -608.115)" fill="#e24b00"/>
  <path id="Path_116" data-name="Path 116" d="M2637.759,578.246q.157-4.777.369-9.562c7.628-30.408,15.709-60.719,22.164-91.379,5.681-26.991,8.664-54.173,10.658-81.607.217-3,.433-6.006.63-9.016.928-14.19.506-28.433-.079-42.629a198.354,198.354,0,0,0-1.978-23.621c-.842-5.171-2.769-10.379-3.307-15.537a.789.789,0,0,0-1.572.122c.076,4.433,1.629,8.527,1.462,13.019-.292,7.9.566,15.856.558,23.764-.011,15.411-1.4,30.668-2.943,45.991-.895,8.936-2.234,17.834-3.841,26.7-3.666,20.208-8.75,40.244-13.34,60.146q-1.531,6.634-3.106,13.256c.112-1.111.205-2.225.25-3.345.186-4.669-3.8-6.815-7.352-6.3.557-4.913,1.043-9.835,1.412-14.771,1.219-16.311-.135-32.786-.078-49.134q.051-14.84-.239-29.7c-.014-.883-.02-1.766-.037-2.649q.519-3.7,1.046-7.4c2.49-17.5,5.214-35.038,2.713-52.679-1.34-9.443-2.848-18.78-4.207-28.109a13.553,13.553,0,0,1-.453-1.841,332.523,332.523,0,0,1,.107-112.87c-18.337,49.755-11.748,101.516-8.379,154.336.52,8.132-.67,16.421-1.416,24.5-.568,6.15-1.23,12.289-1.942,18.422-.661,5.723-1.368,11.44-2.085,17.157-3.107,24.731-6.5,49.777-5.993,74.756.07,3.529.2,7.789.684,12.154a6.647,6.647,0,0,0-1.553,3.65c-.008.067-.014.134-.022.2a37.54,37.54,0,0,0-2.149,3.117c.05-11.332-.126-22.64-.566-33.852-.8-20.315-3.469-40.407-6.874-60.406-8.428-49.49-21.37-98.414-21.719-148.772-.011-1.416-2.408-1.571-2.507-.143-3.424,49.942,5.667,98.721,12.451,147.8,2.74,19.826,5.109,39.7,6.12,59.721a702.174,702.174,0,0,1-2.918,104.781c-3.014,29.895-9.691,59.462-9.927,89.544-.031,3.734.031,7.476.219,11.23-.861,2.566-.979,5.579-.577,9.508a4.5,4.5,0,0,0,3.137,3.43,36.023,36.023,0,0,0,11.16,1.333,5.215,5.215,0,0,0,3.411,1.262,19.008,19.008,0,0,0,2.158-.079,4.809,4.809,0,0,0,4.3-3.573c7.4-3.5,12.645-10.442,16.337-18.709a97.958,97.958,0,0,0,6.815-25.064C2637.075,609.811,2637.248,593.968,2637.759,578.246Zm-39.092,83.082a5.585,5.585,0,0,0,1.452-2.991c.019-.114.04-.228.059-.341a6.431,6.431,0,0,0,1.626.6c-.11.782-.23,1.564-.354,2.347A24.9,24.9,0,0,1,2598.667,661.329Z" transform="translate(-2494.291 -152.086)" fill="#d9e588"/>
  <path id="Path_117" data-name="Path 117" d="M2638.033,1031.263a29.8,29.8,0,0,0-7.724,12.954,36.586,36.586,0,0,0-1.57,10.614c0,16.258,10.335,29.44,23.087,29.44s23.089-13.183,23.089-29.44a35.989,35.989,0,0,0-2.394-12.994c.028.29.088.574.088.872a9.332,9.332,0,1,1-3.208-6.948,24.134,24.134,0,0,0-9.421-8.463,18.644,18.644,0,0,0-8.154-1.9A19.987,19.987,0,0,0,2638.033,1031.263Z" transform="translate(-2510.208 -436.214)" fill="#661800"/>
  <path id="Path_118" data-name="Path 118" d="M2666.97,1046.791a9.236,9.236,0,1,0,18.472,0c0-.3-.06-.583-.088-.872a9.181,9.181,0,0,0-2.43-5.405c-.22-.234-.448-.458-.69-.67a9.193,9.193,0,0,0-15.264,6.948Z" transform="translate(-2523.043 -440.296)" fill="#fff"/>
  <path id="Path_119" data-name="Path 119" d="M2570.067,1040.978a9.338,9.338,0,1,1-3.21-6.947c-4.235-6.339-10.53-10.37-17.571-10.37-12.752,0-23.09,13.181-23.09,29.438,0,.5.04.984.059,1.477a36.16,36.16,0,0,0,1.849,10.228c3.551,10.43,11.694,17.733,21.182,17.733,12.751,0,23.086-13.181,23.086-29.439q0-1.65-.146-3.25a35.591,35.591,0,0,0-2.249-9.745A8.115,8.115,0,0,1,2570.067,1040.978Z" transform="translate(-2475.781 -435.632)" fill="#661800"/>
  <path id="Path_120" data-name="Path 120" d="M2564.43,1045.061a9.237,9.237,0,1,0,18.475,0,8.775,8.775,0,0,0-.09-.873,9.261,9.261,0,0,0-9.147-8.364A9.238,9.238,0,0,0,2564.43,1045.061Z" transform="translate(-2488.617 -439.715)" fill="#fff"/>
  <path id="Path_121" data-name="Path 121" d="M2616.721,1128.856c-2.035,7.057-9.291,9.679-16.055,9.7-7.257.025-13.183-3.725-16.815-9.842a.846.846,0,0,0-1.539.65c4.9,16.891,31.838,17.17,36.486.062A1.078,1.078,0,0,0,2616.721,1128.856Z" transform="translate(-2494.609 -470.694)" fill="#661800"/>
</svg>
