<svg id="cute-avocado" xmlns="http://www.w3.org/2000/svg" width="306.992" height="555.777" viewBox="0 0 306.992 555.777">
  <path id="Path_1" data-name="Path 1" d="M2359.313,456.145c12.5-18.8-3.495-36.368-20.827-43.118,6.547,15.25,12.735,30.733,18.455,46.33C2357.779,458.319,2358.576,457.253,2359.313,456.145Z" transform="translate(-2067.991 -196.523)" fill="none"/>
  <path id="Path_2" data-name="Path 2" d="M1969.332,412.8c-17.476,6.637-33.79,24.328-21.2,43.268.743,1.117,1.55,2.191,2.394,3.238C1956.113,443.337,1962.722,427.659,1969.332,412.8Z" transform="translate(-1935.441 -196.447)" fill="none"/>
  <path id="Path_3" data-name="Path 3" d="M2228.907,374.765c-1.914-5.784-3.925-11.556-5.976-17.32a39.721,39.721,0,0,0,7.6-12.031c9.291-23.02-10.355-43.878-31.849-48.9q-3.288-7.5-6.669-14.916c-19.429-42.432-26.953-88.393-42.538-132.182-9.95-27.963-30.27-57.516-61.928-61.834-37.3-5.088-59.08,31.337-69.93,61.824-15.585,43.791-23.109,89.758-42.541,132.193-2.2,4.814-4.469,9.76-6.75,14.814-21.665,4.841-41.651,25.826-32.293,49.005a39.727,39.727,0,0,0,7.732,12.175c-19.269,58.86-22.887,120.5,38.4,158.8a201.889,201.889,0,0,0,66.165,26.011c-5.83,10.243-5.793,25.078-5.875,35.978a191.419,191.419,0,0,0,4.654,42.044,20.526,20.526,0,0,0-9.949,1.477,21.982,21.982,0,0,0-12.381,11.606c-1.911,4.447.217,8.724,5.205,9.24a25.863,25.863,0,0,0,24.646-12.743,5.4,5.4,0,0,0,.743-3.374,3.655,3.655,0,0,0,.262-2.777,177.9,177.9,0,0,1-6.311-41.274,136.728,136.728,0,0,1,1.178-23.99c.695-5.169,2.338-10.07,3.559-15.086a212.266,212.266,0,0,0,79.755-.748c1.235,5.279,3.008,10.408,3.737,15.834a136.746,136.746,0,0,1,1.179,23.99,177.718,177.718,0,0,1-6.312,41.274,3.666,3.666,0,0,0,.262,2.777,5.4,5.4,0,0,0,.745,3.374,25.862,25.862,0,0,0,24.643,12.743c4.989-.516,7.119-4.793,5.205-9.24A21.974,21.974,0,0,0,2150.9,621.9a20.524,20.524,0,0,0-9.949-1.477,191.409,191.409,0,0,0,4.654-42.044c-.081-11.208-.037-26.581-6.376-36.841C2209.112,524.786,2260.094,468.924,2228.907,374.765Zm-6.3-28.044c-.737,1.108-1.534,2.174-2.371,3.212-5.72-15.6-11.908-31.081-18.456-46.33C2219.1,310.354,2235.1,327.918,2222.6,346.722Zm-257.432-43.268c-6.609,14.858-13.214,30.536-18.81,46.506-.844-1.046-1.651-2.12-2.394-3.238C1931.38,327.782,1947.694,310.09,1965.171,303.454Zm127.46,233.536c-74.986-1.317-158.07-40.562-147.628-127.125a239.979,239.979,0,0,1,9.947-43.433c12.113,7.066,27.409,10.139,41.252,12.01a2.955,2.955,0,0,0,1,.925c.124.068.262.126.385.193,6.55,8.159,18.109,11.1,28,11.785a1.785,1.785,0,0,0,.461-3.539,54.539,54.539,0,0,1-14.806-4.435c-.234-.115-.45-.255-.672-.383,7.65.464,15.542-1.554,19.586-7.4a1.549,1.549,0,0,0-1.739-2.412,44.942,44.942,0,0,1-19.071,2.472c5.346-1.891,10.442-4.332,14.488-8.433,1.305-1.325-.262-3.915-1.967-2.8a41.2,41.2,0,0,1-12.082,4.954c1.336-2.981,1.449-6.362,1.446-9.627,0-1.24-1.9-1.867-2.265-.5-.842,3.126-2.662,5.573-4.558,8.14-2.181,2.951-5.051,4.154-7.712,6.376-13.63-1.378-28.25-5.939-39.579-13.885,8.627-25.439,20.1-50.513,30.11-72.369,12.425-27.138,20.261-55.495,27.842-82.918,4.916-17.773,9.992-36.151,16.2-53.61,7.614-21.394,24.87-52.01,50.734-52.612,27.547-.642,45.754,30.06,53.779,52.616,6.216,17.457,11.295,35.835,16.2,53.609,7.58,27.422,15.417,55.778,27.839,82.9,11.182,24.421,21.12,48.663,29.688,72.348-11.334,7.968-25.976,12.537-39.626,13.918-2.662-2.221-5.535-3.424-7.712-6.376-1.9-2.567-3.717-5.014-4.561-8.14-.366-1.365-2.259-.739-2.262.5-.006,3.265.106,6.646,1.444,9.627a41.234,41.234,0,0,1-12.082-4.954c-1.705-1.12-3.273,1.471-1.967,2.8,4.046,4.1,9.142,6.542,14.488,8.433a44.942,44.942,0,0,1-19.071-2.472,1.549,1.549,0,0,0-1.739,2.412c4.047,5.85,11.939,7.868,19.589,7.4-.225.127-.442.267-.676.383a54.465,54.465,0,0,1-14.806,4.435,1.785,1.785,0,0,0,.461,3.539c9.891-.68,21.449-3.626,28-11.785.124-.066.262-.125.386-.193a2.924,2.924,0,0,0,1-.925c13.923-1.882,29.305-4.981,41.449-12.13,1.753,4.972,3.466,9.928,5.093,14.842,13.984,42.209,11.032,78.838-8.532,105.926C2182.149,523.4,2137.756,537.781,2092.632,536.99Z" transform="translate(-1931.281 -87.099)" fill="#617c48"/>
  <path id="Path_4" data-name="Path 4" d="M2223.393,386.842c-1.627-4.914-3.34-9.87-5.093-14.842-12.144,7.149-27.527,10.248-41.449,12.13a2.924,2.924,0,0,1-1,.925c-.124.068-.262.126-.386.193-6.547,8.159-18.106,11.1-28,11.785a1.785,1.785,0,0,1-.461-3.539,54.469,54.469,0,0,0,14.806-4.435c.234-.115.45-.255.676-.383-7.651.464-15.543-1.554-19.589-7.4a1.549,1.549,0,0,1,1.739-2.412,44.941,44.941,0,0,0,19.071,2.472c-5.346-1.891-10.442-4.332-14.488-8.433-1.306-1.325.262-3.915,1.967-2.8a41.243,41.243,0,0,0,12.082,4.954c-1.337-2.981-1.449-6.362-1.444-9.627,0-1.24,1.9-1.867,2.262-.5.844,3.126,2.662,5.573,4.561,8.14,2.177,2.951,5.051,4.154,7.712,6.376,13.65-1.382,28.292-5.951,39.626-13.918-8.568-23.684-18.506-47.927-29.688-72.348-12.422-27.125-20.259-55.481-27.839-82.9-4.91-17.773-9.989-36.152-16.2-53.609-8.024-22.556-26.232-53.258-53.779-52.616-25.864.6-43.121,31.218-50.734,52.612-6.213,17.459-11.289,35.837-16.2,53.61-7.58,27.424-15.417,55.78-27.842,82.918-10.006,21.856-21.483,46.93-30.11,72.369,11.328,7.946,25.948,12.506,39.579,13.885,2.662-2.221,5.531-3.424,7.712-6.376,1.9-2.567,3.717-5.014,4.557-8.14.366-1.365,2.263-.739,2.265.5,0,3.265-.11,6.646-1.446,9.627a41.186,41.186,0,0,0,12.082-4.954c1.7-1.12,3.272,1.471,1.967,2.8-4.047,4.1-9.142,6.542-14.488,8.433a44.941,44.941,0,0,0,19.071-2.472,1.549,1.549,0,0,1,1.739,2.412c-4.043,5.85-11.936,7.868-19.586,7.4.222.127.438.267.672.383a54.538,54.538,0,0,0,14.806,4.435,1.785,1.785,0,0,1-.461,3.539c-9.888-.68-21.447-3.626-28-11.785-.124-.066-.262-.125-.385-.193a2.952,2.952,0,0,1-1-.925c-13.843-1.871-29.139-4.943-41.253-12.01a240.052,240.052,0,0,0-9.947,43.433c-10.442,86.563,72.642,125.808,147.628,127.125,45.129.792,89.522-13.594,115.749-49.91C2234.426,465.68,2237.376,429.051,2223.393,386.842ZM2116.179,199.123a10.855,10.855,0,0,1,7.707,3.477,5.5,5.5,0,0,1,3.714,5.188c0,.166-.034.323-.047.486a22.832,22.832,0,0,1,1.624,8.573c0,9.789-5.819,17.723-13,17.723s-13-7.934-13-17.723S2109.005,199.123,2116.179,199.123ZM2089.768,260.7c9.2.308,17.769-3.867,19.116-13.515-.062-.008-.124-.013-.185-.022a1.57,1.57,0,0,1,0-3.139,19.507,19.507,0,0,1,3.151-.24,1.81,1.81,0,0,1,0,3.618c-.124,0-.248-.012-.374-.012-.5,7.7-5.355,12.7-11.632,15.148-.99,4.751-4.939,8.766-9.789,8.525-4.975-.217-7.634-4.357-9.59-8.452-6.351-2.4-11.179-7.3-11.342-14.585-1.3-.11-2.541-.138-3.564-1.037a.854.854,0,0,1,0-1.214c1.15-1,2.794-1.03,4.3-.972a.83.83,0,0,1,.723.031,7.94,7.94,0,0,1,4,.858c1.2.792.884,3.107-.8,2.945-.619-.06-1.238-.152-1.856-.246C2074.875,255.828,2081.166,260.416,2089.768,260.7Zm-21.635-61.581a10.854,10.854,0,0,1,7.708,3.477,5.5,5.5,0,0,1,3.714,5.188c0,.166-.034.323-.047.486a22.842,22.842,0,0,1,1.623,8.573c0,9.789-5.819,17.723-13,17.723s-13-7.934-13-17.723S2060.952,199.123,2068.133,199.123Zm67.928,220.462c-7.357,21.7-24.6,36.935-44.7,36.935-26.79,0-48.506-27.073-48.506-60.471,0-15.095,4.446-28.888,11.784-39.483,8.9-12.844,22.04-20.985,36.722-20.985,26.793,0,48.509,27.072,48.509,60.468A73.2,73.2,0,0,1,2136.061,419.585Z" transform="translate(-1937.763 -92.788)" fill="#d9e588"/>
  <path id="Path_5" data-name="Path 5" d="M2145.974,568.2c-26.79,0-48.506-27.072-48.506-60.47a73.331,73.331,0,0,1,3.81-23.536c-7.338,10.6-11.784,24.388-11.784,39.483,0,33.4,21.716,60.471,48.506,60.471,20.1,0,37.339-15.23,44.7-36.935C2173.807,560.057,2160.661,568.2,2145.974,568.2Z" transform="translate(-1984.397 -220.415)" fill="#7a4e42"/>
  <path id="Path_6" data-name="Path 6" d="M2142.035,452.6c-14.682,0-27.825,8.14-36.722,20.985a73.338,73.338,0,0,0-3.81,23.536c0,33.4,21.716,60.47,48.506,60.47,14.683,0,27.83-8.141,36.722-20.986a73.237,73.237,0,0,0,3.813-23.536C2190.54,479.675,2168.825,452.6,2142.035,452.6Zm39.165,57.889c-.4,6.568-11.688,6.1-11.514-.472a40.233,40.233,0,0,0-6.562-24.11c-3.433-5.325-8.255-10.14-11.216-15.683-.366-.682.056-1.708.962-1.511C2171.695,472.791,2182.29,492.593,2181.2,510.492Z" transform="translate(-1988.429 -209.809)" fill="#8e6659"/>
  <path id="Path_7" data-name="Path 7" d="M2178.277,476.847c-.906-.2-1.328.829-.962,1.511,2.96,5.543,7.783,10.357,11.216,15.683a40.231,40.231,0,0,1,6.562,24.11c-.175,6.573,11.112,7.041,11.514.472C2207.7,500.725,2197.1,480.922,2178.277,476.847Z" transform="translate(-2013.837 -217.941)" fill="#d3afa7"/>
  <path id="Path_8" data-name="Path 8" d="M2193.3,282.625c7.178,0,13-7.934,13-17.723a22.837,22.837,0,0,0-1.624-8.573,5.561,5.561,0,1,1-3.666-5.674,10.854,10.854,0,0,0-7.707-3.477c-7.178,0-13,7.935-13,17.724S2186.127,282.625,2193.3,282.625Z" transform="translate(-2014.885 -140.842)" fill="#364f21"/>
  <path id="Path_9" data-name="Path 9" d="M2200.47,257.435a5.5,5.5,0,0,0,10.979.486c.014-.163.047-.32.047-.486a5.513,5.513,0,1,0-11.026,0Z" transform="translate(-2021.655 -142.435)" fill="#fff"/>
  <path id="Path_10" data-name="Path 10" d="M2120.971,282.625c7.178,0,13-7.934,13-17.723a22.851,22.851,0,0,0-1.623-8.573,5.563,5.563,0,1,1-3.667-5.674,10.853,10.853,0,0,0-7.708-3.477c-7.178,0-13,7.935-13,17.724S2113.79,282.625,2120.971,282.625Z" transform="translate(-1990.601 -140.842)" fill="#364f21"/>
  <path id="Path_11" data-name="Path 11" d="M2128.13,257.435a5.5,5.5,0,0,0,10.98.486c.014-.163.047-.32.047-.486a5.513,5.513,0,1,0-11.027,0Z" transform="translate(-1997.368 -142.435)" fill="#fff"/>
  <path id="Path_12" data-name="Path 12" d="M2129.9,319.022c.619.094,1.238.186,1.857.246,1.683.162,2-2.152.8-2.945a7.939,7.939,0,0,0-4-.858.83.83,0,0,0-.723-.031c-1.509-.058-3.151-.033-4.3.972a.854.854,0,0,0,0,1.214c1.023.9,2.262.927,3.564,1.037.164,7.282,4.992,12.188,11.342,14.585,1.955,4.1,4.614,8.235,9.589,8.452,4.851.241,8.8-3.774,9.789-8.525,6.277-2.445,11.128-7.448,11.632-15.148.126,0,.25.017.374.012a1.81,1.81,0,0,0,0-3.618,19.435,19.435,0,0,0-3.151.24,1.57,1.57,0,0,0,0,3.139c.062.009.125.014.186.022-1.347,9.648-9.913,13.823-19.116,13.515C2139.142,331.043,2132.852,326.455,2129.9,319.022Z" transform="translate(-1995.74 -163.415)" fill="#364f21"/>
</svg>
