<svg id="hello-avocado" xmlns="http://www.w3.org/2000/svg" width="165.221" height="281.697" viewBox="0 0 165.221 281.697">
  <path id="Path_27" data-name="Path 27" d="M2210.831,1170.069c-2.721-.3-5.187-.563-7.508-.859a44.128,44.128,0,0,1,11.417,17.474c4.468,12.284,2.467,27.14,8.018,39.477q.378.84.756,1.663a8.153,8.153,0,0,0,.808-.568,75.533,75.533,0,0,0,6.223-5.745c4.663-4.768,9.627-9.861,13.41-15.341,1.425-2.064.542-3.618-.166-5.954a89.711,89.711,0,0,0-4.487-11.334,160.29,160.29,0,0,1-6.815-16.08c-.479-.462-1-.921-1.543-1.488-.281-.291-.553-.561-.823-.82a9.912,9.912,0,0,1-7.07-.7A58.07,58.07,0,0,1,2210.831,1170.069Z" transform="translate(-2084.275 -1127.124)" fill="none"/>
  <path id="Path_28" data-name="Path 28" d="M2019.865,1823.438c-.4,8.263-.316,17.217,2.237,25.233-3,.381-6.487,2.544-8.352,4.115-2.462,2.073-3.453,7.051.016,8.625,2.651,1.2,5.881-1.4,7.835-2.863a25.009,25.009,0,0,0,6.125-6.069,2.2,2.2,0,0,0,.153-2.343,3.006,3.006,0,0,0-.113-.554c-4.554-15.025-3.4-31.226-2.041-46.825-1.19-.218-2.192-.437-3-.618A128.6,128.6,0,0,0,2019.865,1823.438Z" transform="translate(-1947.028 -1580.023)" fill="#162306"/>
  <path id="Path_29" data-name="Path 29" d="M2159.833,1796.726c1.418,16.089,2.81,32.887-1.9,48.429a3.018,3.018,0,0,0-.113.554,2.2,2.2,0,0,0,.153,2.343,25.012,25.012,0,0,0,6.125,6.069c1.954,1.467,5.185,4.065,7.835,2.863,3.468-1.574,2.477-6.552.015-8.625-1.865-1.571-5.351-3.734-8.352-4.115,2.553-8.017,2.635-16.971,2.237-25.233a129.6,129.6,0,0,0-3.261-23.058c-.385.113-.767.234-1.153.343Q2160.627,1796.519,2159.833,1796.726Z" transform="translate(-2051.523 -1575.596)" fill="#162306"/>
  <path id="Path_30" data-name="Path 30" d="M1932.11,1747.14q.7.6,1.43,1.17a6.851,6.851,0,0,1-.218-1.06A4.233,4.233,0,0,1,1932.11,1747.14Z" transform="translate(-1890.205 -1540.668)" fill="#4f702e"/>
  <path id="Path_31" data-name="Path 31" d="M1859.9,1573.48c-.009.159-.012.316-.019.474.037-.069.076-.137.118-.2C1859.964,1573.665,1859.933,1573.574,1859.9,1573.48Z" transform="translate(-1838.522 -1416.404)" fill="#4f702e"/>
  <path id="Path_32" data-name="Path 32" d="M2036.632,1792.02a2.891,2.891,0,0,1-2.611,1.422,3.049,3.049,0,0,1-1.853-.572,5.253,5.253,0,0,1-.365.662q2.565.716,5.171,1.306a6.061,6.061,0,0,1-.389-2.109A5.543,5.543,0,0,1,2036.632,1792.02Z" transform="translate(-1961.542 -1572.782)" fill="#4f702e"/>
  <path id="Path_33" data-name="Path 33" d="M2106.081,1810.555v-.091C2106,1810.328,2105.9,1810.538,2106.081,1810.555Z" transform="translate(-2014.619 -1585.947)" fill="#4f702e"/>
  <path id="Path_34" data-name="Path 34" d="M1861.438,1556.69a.305.305,0,0,1,0,.036c0-.008.008-.016.013-.024S1861.441,1556.693,1861.438,1556.69Z" transform="translate(-1839.632 -1404.389)" fill="#4f702e"/>
  <path id="Path_35" data-name="Path 35" d="M1986.321,1204.686a1.814,1.814,0,0,1,.042-2.522c.894-1.1,2.509-1.764,3.845-2.61q-.378-.824-.755-1.663c-5.551-12.336-3.55-27.193-8.018-39.477a44.13,44.13,0,0,0-11.417-17.474c-7.281-.93-13.109-2.215-20.707-6.28a65.121,65.121,0,0,1-7.123-4.938c-17.164-.473-34.578,9.1-41.7,28.691-4.466,12.284-2.468,27.141-8.018,39.478q-1.149,2.554-2.3,4.978c1.859-2.212,3.648-4.481,5.318-6.847.668-.948,2.219-.224,1.642.864-3.435,6.473-7.9,12.109-12.557,17.609q-.471.985-.935,1.965c1.3.01,2.665,1.063,2.055,2.508-.131.311-.249.578-.377.827a2.862,2.862,0,0,1,.319,2.4,7.564,7.564,0,0,1-2.981,3.822c.666-.435-.064,3.161-.191,3.5a3.089,3.089,0,0,1-.889,1.286c.024.644.051,1.4.034,2.145a3.314,3.314,0,0,1,1.342,1.889l.123.909c.017.134.033.267.051.4a3.307,3.307,0,0,1-1.017,2.455,3.472,3.472,0,0,1-1.347.819,15.122,15.122,0,0,1-.537,2.051,3.684,3.684,0,0,1-2.15,2.3c-.245.289-.535.574-.794.856a6.107,6.107,0,0,1,.92,3.914,3.42,3.42,0,0,1,.54,5.682,6.342,6.342,0,0,1-.314,1.279,2.917,2.917,0,0,1-.287.58,2.678,2.678,0,0,1,.257.43c-.16-.2-.255-.32-.3-.371l0,0c.064.084.259.335.6.765a3.939,3.939,0,0,1,.456,1.2,11.137,11.137,0,0,1,.2,1.62,9.96,9.96,0,0,1-.23,2.751,3.333,3.333,0,0,1-.479,1.177,3.428,3.428,0,0,1-.491,5.755,4.122,4.122,0,0,1-.239.406,7.434,7.434,0,0,1,1.445,1.862,5.5,5.5,0,0,1,2.15-.44,5.613,5.613,0,0,1,1.413,11.046,7.4,7.4,0,0,1,.734,2.706,5.59,5.59,0,0,1,3.772,2.548c0-.086-.017-.171-.017-.258a3.952,3.952,0,0,1,.542-2l.2-.437a3.739,3.739,0,0,1,6.455,0l.2.438a3.969,3.969,0,0,1,0,4,4,4,0,0,1-3.425,1.965,3.925,3.925,0,0,1-1.148-.179,16.4,16.4,0,0,1,1.679,1.3c.057.051.1.112.152.166a5.35,5.35,0,0,0,9.187-2.487,5.915,5.915,0,0,1,3.523,10.684,6.735,6.735,0,0,1,1.177,4.611l.058.131a3.981,3.981,0,0,1,3.262-1.5,4.3,4.3,0,0,1,2.106.512,4.215,4.215,0,0,1,.96-.692,5.125,5.125,0,0,1,2.459-.657,4.5,4.5,0,0,1,3.249,1.346,4.61,4.61,0,0,1,1.264,2.4,5.72,5.72,0,0,1,1.682-.243,4.88,4.88,0,0,1,4.56,2.67,4.409,4.409,0,0,1,.116-1.073,3.92,3.92,0,0,1,1.8-2.365,4.483,4.483,0,0,1,2.163-.594,3.531,3.531,0,0,1,2.587,1.071,3.65,3.65,0,0,1-1.143,5.938c-.024.016-.043.035-.069.051a3.606,3.606,0,0,1-4.868-1.163,6.13,6.13,0,0,1-.339,3.013,3.37,3.37,0,0,1,.739,2.194,6.054,6.054,0,0,1,3.953-3.439l.02-.007a6.119,6.119,0,0,1,3.236,0c.042.012.08.029.12.042a4.881,4.881,0,0,1,3.275,1.089,4.951,4.951,0,0,1,1.476,1.586c.015.026.022.043.035.067a4.794,4.794,0,0,1,3.976,3.151,3.431,3.431,0,0,1,2.153-1.4,4.661,4.661,0,0,1,.559-1.535,4.529,4.529,0,0,1,1.682-1.669c.018-.065.034-.131.058-.194a10.653,10.653,0,0,1,.595-1.293,3.421,3.421,0,0,1,5.859,0,10.819,10.819,0,0,1,.594,1.293,3.666,3.666,0,0,1,0,1.943c-.011.038-.026.073-.039.11.008.017.018.033.025.05.19.435.354.786.483,1.136a4.624,4.624,0,0,1,2.344,2.888c.04.12.059.246.088.369.758-.182,1.511-.376,2.262-.575.53-.14,1.059-.282,1.587-.43-.065-.057-.13-.107-.194-.171a4.208,4.208,0,0,1-1.257-3.081,4.546,4.546,0,0,1,.9-2.593,3.728,3.728,0,0,1,.482-.6,3.567,3.567,0,0,1,.783-.613,3.377,3.377,0,0,1,.317-.215,3.278,3.278,0,0,1,.823-.338,4.247,4.247,0,0,1,2.8.043,3.888,3.888,0,0,1,4.306-.254,3.767,3.767,0,0,1,2.087,3.357,3.632,3.632,0,0,1-.058.617q3.435-1.468,6.7-3.263a4.493,4.493,0,0,1-.963-4.183,2.789,2.789,0,0,1,.437-1.069c.045-.093.092-.188.157-.3a4.657,4.657,0,0,1,2.688-2.059,4.351,4.351,0,0,1,3.424.456,4.514,4.514,0,0,1,1.926,2.265c16.838-12.542,25.651-33.159,22.963-56-2.253-19.144-9.367-31.72-16.867-47.479C1990.181,1205.488,1987.974,1206.165,1986.321,1204.686Zm-83.847,9.64a1.459,1.459,0,0,1,0,2.916A1.459,1.459,0,0,1,1902.474,1214.325Zm-6.784,11.369a1.193,1.193,0,0,1,0,2.386A1.193,1.193,0,0,1,1895.69,1225.694Zm-6.829,33.271a3.652,3.652,0,0,1-.5,1.846q-.288.37-.573.741a3.658,3.658,0,0,1-6.113-1.615q-.067-.486-.132-.972a4.243,4.243,0,0,1,.552-2.272,3.6,3.6,0,0,1,6.212,0A4.26,4.26,0,0,1,1888.861,1258.965Zm3.126-17.8c3.863,0,3.863,5.991,0,5.991S1888.124,1241.165,1891.987,1241.165Zm8.124,33.208a4.458,4.458,0,0,1-2.107,2.74,4.589,4.589,0,0,1-6.736-2.74,5.555,5.555,0,0,1-.036-2.755,5.093,5.093,0,0,1,1.266-2.179,4.533,4.533,0,0,1,6.383,0,5.106,5.106,0,0,1,1.267,2.179A5.548,5.548,0,0,1,1900.111,1274.373Zm2.364-11.173c-3.077,0-3.077-4.771,0-4.771S1905.552,1263.2,1902.474,1263.2Zm57.369-1.186a.583.583,0,0,1,0-1.166A.583.583,0,0,1,1959.843,1262.014Zm-6.989-92.084c3.633,0,6.579,3.314,6.579,7.4s-2.946,7.4-6.579,7.4-6.581-3.314-6.581-7.4S1949.219,1169.93,1952.854,1169.93Zm-34.34,76.19c3.042,0,3.042,4.718,0,4.718S1915.47,1246.12,1918.514,1246.12Zm-2.469,33.046c3.384,0,3.384,5.248,0,5.248S1912.663,1279.166,1916.045,1279.166Zm-6.167-37.319c-3.384,0-3.384-5.248,0-5.248S1913.263,1241.848,1909.878,1241.848Zm7.4,61.157c-5.88,0-5.88-9.118,0-9.118S1923.159,1303.005,1917.279,1303.005Zm3.086-35.168c-3.487,0-3.487-5.407,0-5.407S1923.85,1267.837,1920.365,1267.837Zm5.55,37.947a3.022,3.022,0,1,1,3.022-3.022A3.05,3.05,0,0,1,1925.915,1305.784Zm3.7-9.606c-4.238,0-4.238-6.573,0-6.573S1933.857,1296.178,1929.618,1296.178Zm0-16.15c3.863,0,3.863,5.99,0,5.99S1925.756,1280.028,1929.618,1280.028Zm1.644-95.293c-3.634,0-6.581-3.314-6.581-7.4s2.947-7.4,6.581-7.4,6.58,3.314,6.58,7.4S1934.9,1184.735,1931.263,1184.735Zm5.14,60.933c3.624,0,3.624,5.619,0,5.619S1932.779,1245.668,1936.4,1245.668Zm5.444,68.468a3.976,3.976,0,0,1-2.359.57,3.9,3.9,0,0,1-1.98-.536l-.794-.614a3.926,3.926,0,0,1,1.731-6.557l1.042-.139a3.975,3.975,0,0,1,2.359.57,3.884,3.884,0,0,1,0,6.706Zm.108-16.873c-3.247,0-3.247-5.036,0-5.036S1945.2,1297.262,1941.955,1297.262Zm-.617-16.372c-4.41,0-4.41-6.838,0-6.838S1945.749,1280.89,1941.337,1280.89Zm-2.139-84.2c-.008.126-.016.251-.013.373.005.278.029.749-.3.887a.509.509,0,0,1-.5,0c-.522-.305-.464-1.247-.3-1.742a2.229,2.229,0,0,1,1.033-1.262.316.316,0,0,1,.43.43,3.221,3.221,0,0,0-.347,1.207c4.023,3.366,11.747.363,14.492-3.267-.073-.071-.145-.145-.224-.21a8.367,8.367,0,0,1-.7-.691c-.259-.264,0-.821.387-.665a3.779,3.779,0,0,1,1.976,1.44c.376.536-.5,1.213-.908.7-.058-.071-.12-.137-.178-.205C1953.5,1204.981,1946.429,1208.1,1939.2,1196.693Zm10.16,110.061c-3.555,0-3.555-5.513,0-5.513S1952.914,1306.754,1949.359,1306.754Zm3.7-17.026c-3.077,0-3.077-4.771,0-4.771S1956.137,1289.728,1953.059,1289.728Zm5.552,17.265c-3.863,0-3.863-5.991,0-5.991S1962.474,1306.993,1958.611,1306.993Zm13.571-24.3c-3.556,0-3.556-5.513,0-5.513S1975.737,1282.7,1972.182,1282.7Zm8.636,15.533c-2.906,0-2.906-4.506,0-4.506S1983.725,1298.229,1980.818,1298.229Zm12.339-15.607c2.906,0,2.906,4.506,0,4.506S1990.25,1282.622,1993.157,1282.622Z" transform="translate(-1850.97 -1098.857)" fill="#4f702e"/>
  <path id="Path_36" data-name="Path 36" d="M1877.52,1485.3c-.053-.037-.1-.082-.151-.123-.133.374-.265.748-.394,1.126a3.6,3.6,0,0,1,.588-.334C1877.54,1485.747,1877.525,1485.525,1877.52,1485.3Z" transform="translate(-1850.753 -1353.217)" fill="#4f702e"/>
  <path id="Path_37" data-name="Path 37" d="M1998.16,1769.857c.064.166.119.325.163.462.047.152.076.307.11.46a3.919,3.919,0,0,1,1.046-.707,4.561,4.561,0,0,1-.993-.463A3.264,3.264,0,0,1,1998.16,1769.857Z" transform="translate(-1937.468 -1556.746)" fill="#4f702e"/>
  <path id="Path_38" data-name="Path 38" d="M1915.68,1692.05a5.225,5.225,0,0,1,.053.6c.007.015.012.031.018.046a6.078,6.078,0,0,1,.8.2A4.1,4.1,0,0,1,1915.68,1692.05Z" transform="translate(-1878.449 -1501.248)" fill="#4f702e"/>
  <path id="Path_39" data-name="Path 39" d="M2070.619,1766.65c-.035.065-.078.125-.116.188l.081-.1C2070.593,1766.707,2070.607,1766.678,2070.619,1766.65Z" transform="translate(-1989.234 -1554.628)" fill="#4f702e"/>
  <path id="Path_40" data-name="Path 40" d="M2006.817,1706.91c-5.88,0-5.88,9.118,0,9.118S2012.7,1706.91,2006.817,1706.91Z" transform="translate(-1940.507 -1511.881)" fill="#364f21"/>
  <path id="Path_41" data-name="Path 41" d="M1933.585,1617.655a4.533,4.533,0,0,0-6.383,0,5.092,5.092,0,0,0-1.266,2.179,5.553,5.553,0,0,0,.036,2.754,4.587,4.587,0,0,0,6.736,2.74,4.457,4.457,0,0,0,2.107-2.74,5.551,5.551,0,0,0,.037-2.754A5.143,5.143,0,0,0,1933.585,1617.655Z" transform="translate(-1885.673 -1447.073)" fill="#364f21"/>
  <path id="Path_42" data-name="Path 42" d="M1895.9,1569.89a3.547,3.547,0,0,0-3.106,1.781,4.241,4.241,0,0,0-.552,2.272q.065.486.131.972a3.659,3.659,0,0,0,6.113,1.615q.286-.37.573-.741a3.649,3.649,0,0,0,.5-1.846,4.242,4.242,0,0,0-.552-2.272A3.551,3.551,0,0,0,1895.9,1569.89Z" transform="translate(-1861.667 -1413.835)" fill="#364f21"/>
  <path id="Path_43" data-name="Path 43" d="M1921.7,1521.56c-3.863,0-3.863,5.991,0,5.991S1925.565,1521.56,1921.7,1521.56Z" transform="translate(-1880.685 -1379.252)" fill="#364f21"/>
  <path id="Path_44" data-name="Path 44" d="M1960.054,1582.26c-3.077,0-3.077,4.771,0,4.771S1963.132,1582.26,1960.054,1582.26Z" transform="translate(-1908.55 -1422.686)" fill="#364f21"/>
  <path id="Path_45" data-name="Path 45" d="M2007.187,1660.407c3.384,0,3.384-5.248,0-5.248S2003.8,1660.407,2007.187,1660.407Z" transform="translate(-1942.112 -1474.85)" fill="#364f21"/>
  <path id="Path_46" data-name="Path 46" d="M2040.669,1727.5a3.022,3.022,0,1,0,3.022,3.022A3.05,3.05,0,0,0,2040.669,1727.5Z" transform="translate(-1965.724 -1526.614)" fill="#364f21"/>
  <path id="Path_47" data-name="Path 47" d="M2088.477,1753.046a3.976,3.976,0,0,0-2.359-.57l-1.042.14a3.923,3.923,0,0,0-1.731,6.557q.4.308.794.614a3.9,3.9,0,0,0,1.98.536,3.976,3.976,0,0,0,2.359-.57,3.884,3.884,0,0,0,0-6.706Z" transform="translate(-1997.6 -1544.474)" fill="#364f21"/>
  <path id="Path_48" data-name="Path 48" d="M2176.444,1768.332a3.9,3.9,0,0,0-3.933,0,3.786,3.786,0,0,0-.373.254,4.25,4.25,0,0,0-2.8-.043,3.076,3.076,0,0,0-1.14.553,3.566,3.566,0,0,0-.783.613,3.681,3.681,0,0,0-.482.6,4.545,4.545,0,0,0-.9,2.593,4.209,4.209,0,0,0,1.257,3.081c.064.064.129.113.194.171.385-.108.768-.23,1.153-.343a89.007,89.007,0,0,0,9.84-3.5,3.641,3.641,0,0,0,.058-.617A3.762,3.762,0,0,0,2176.444,1768.332Z" transform="translate(-2057.584 -1555.451)" fill="#364f21"/>
  <path id="Path_49" data-name="Path 49" d="M2155.932,1731.93c-3.863,0-3.863,5.991,0,5.991S2159.795,1731.93,2155.932,1731.93Z" transform="translate(-2048.291 -1529.784)" fill="#364f21"/>
  <path id="Path_50" data-name="Path 50" d="M2098.533,1701.07c-3.247,0-3.247,5.036,0,5.036S2101.781,1701.07,2098.533,1701.07Z" transform="translate(-2007.548 -1507.702)" fill="#364f21"/>
  <path id="Path_51" data-name="Path 51" d="M2054,1664.18c3.863,0,3.863-5.991,0-5.991S2050.139,1664.18,2054,1664.18Z" transform="translate(-1975.354 -1477.018)" fill="#364f21"/>
  <path id="Path_52" data-name="Path 52" d="M2137.894,1675.51c-3.077,0-3.077,4.771,0,4.771S2140.972,1675.51,2137.894,1675.51Z" transform="translate(-2035.805 -1489.412)" fill="#364f21"/>
  <path id="Path_53" data-name="Path 53" d="M2123.982,1732.77c-3.556,0-3.556,5.513,0,5.513S2127.537,1732.77,2123.982,1732.77Z" transform="translate(-2025.593 -1530.385)" fill="#364f21"/>
  <path id="Path_54" data-name="Path 54" d="M2053.293,1691.86c-4.238,0-4.238,6.573,0,6.573S2057.531,1691.86,2053.293,1691.86Z" transform="translate(-1974.645 -1501.111)" fill="#364f21"/>
  <path id="Path_55" data-name="Path 55" d="M2094.17,1637.18c-4.41,0-4.41,6.838,0,6.838S2098.582,1637.18,2094.17,1637.18Z" transform="translate(-2003.803 -1461.985)" fill="#364f21"/>
  <path id="Path_56" data-name="Path 56" d="M2022.181,1596.32c-3.487,0-3.487,5.407,0,5.407S2025.665,1596.32,2022.181,1596.32Z" transform="translate(-1952.785 -1432.747)" fill="#364f21"/>
  <path id="Path_57" data-name="Path 57" d="M2016.508,1543.691c3.042,0,3.042-4.718,0-4.718S2013.464,1543.691,2016.508,1543.691Z" transform="translate(-1948.964 -1391.712)" fill="#364f21"/>
  <path id="Path_58" data-name="Path 58" d="M1985.5,1505.51c-3.384,0-3.384,5.248,0,5.248S1988.89,1505.51,1985.5,1505.51Z" transform="translate(-1926.596 -1367.767)" fill="#364f21"/>
  <path id="Path_59" data-name="Path 59" d="M1939.107,1469.559a1.193,1.193,0,0,0,0-2.386A1.193,1.193,0,0,0,1939.107,1469.559Z" transform="translate(-1894.386 -1340.335)" fill="#364f21"/>
  <path id="Path_60" data-name="Path 60" d="M1962.313,1430.115a1.459,1.459,0,0,0,0-2.916A1.459,1.459,0,0,0,1962.313,1430.115Z" transform="translate(-1910.808 -1311.731)" fill="#364f21"/>
  <path id="Path_61" data-name="Path 61" d="M2078.3,1537.39c-3.625,0-3.625,5.619,0,5.619S2081.925,1537.39,2078.3,1537.39Z" transform="translate(-1992.869 -1390.579)" fill="#364f21"/>
  <path id="Path_62" data-name="Path 62" d="M2166.133,1591.926a.583.583,0,0,0,0-1.166A.583.583,0,0,0,2166.133,1591.926Z" transform="translate(-2057.26 -1428.768)" fill="#364f21"/>
  <path id="Path_63" data-name="Path 63" d="M2204.222,1648.19c-3.556,0-3.556,5.513,0,5.513S2207.777,1648.19,2204.222,1648.19Z" transform="translate(-2083.01 -1469.863)" fill="#364f21"/>
  <path id="Path_64" data-name="Path 64" d="M2235.807,1706.34c-2.906,0-2.906,4.506,0,4.506S2238.714,1706.34,2235.807,1706.34Z" transform="translate(-2105.959 -1511.473)" fill="#364f21"/>
  <path id="Path_65" data-name="Path 65" d="M2279.186,1671.814c2.906,0,2.906-4.506,0-4.506S2276.279,1671.814,2279.186,1671.814Z" transform="translate(-2137 -1483.543)" fill="#364f21"/>
  <path id="Path_66" data-name="Path 66" d="M2236.271,1745.435a4.353,4.353,0,0,0-3.424-.456,4.658,4.658,0,0,0-2.688,2.059c-.065.111-.112.207-.157.3a2.784,2.784,0,0,0-.437,1.069,4.553,4.553,0,0,0,0,2.413,4.508,4.508,0,0,0,.963,1.77c1.941-1.066,3.84-2.209,5.675-3.461.678-.463,1.341-.942,2-1.429A4.5,4.5,0,0,0,2236.271,1745.435Z" transform="translate(-2102.936 -1538.997)" fill="#364f21"/>
  <path id="Path_67" data-name="Path 67" d="M1873.19,1694.01c.076.439.082.474.017.088C1873.2,1694.067,1873.2,1694.038,1873.19,1694.01Z" transform="translate(-1848.045 -1502.65)" fill="#364f21"/>
  <path id="Path_68" data-name="Path 68" d="M1943.091,1536.391a4.645,4.645,0,0,0-1.147-.835c-.129-.35-.293-.7-.483-1.137-.007-.017-.017-.033-.025-.05.012-.037.028-.072.039-.11a3.671,3.671,0,0,0,0-1.943,10.82,10.82,0,0,0-.594-1.293,3.421,3.421,0,0,0-5.859,0,10.653,10.653,0,0,0-.6,1.293c-.024.063-.04.129-.058.194a4.535,4.535,0,0,0-1.682,1.669,4.654,4.654,0,0,0-.559,1.535,3.432,3.432,0,0,0-2.153,1.4,4.793,4.793,0,0,0-3.976-3.151c-.013-.024-.021-.042-.035-.067a4.956,4.956,0,0,0-1.476-1.586,4.881,4.881,0,0,0-3.275-1.089c-.041-.013-.078-.03-.12-.042a6.12,6.12,0,0,0-3.236,0l-.021.007a6.054,6.054,0,0,0-3.953,3.439,3.371,3.371,0,0,0-.739-2.194,6.125,6.125,0,0,0,.34-3.013,3.606,3.606,0,0,0,4.868,1.163c.025-.016.044-.035.068-.051a3.65,3.65,0,0,0,1.143-5.938,3.53,3.53,0,0,0-2.587-1.071,4.483,4.483,0,0,0-2.163.594,3.92,3.92,0,0,0-1.8,2.365,4.408,4.408,0,0,0-.116,1.073,4.88,4.88,0,0,0-4.56-2.67,5.719,5.719,0,0,0-1.682.243,4.613,4.613,0,0,0-1.264-2.4,4.5,4.5,0,0,0-3.249-1.346,5.122,5.122,0,0,0-2.459.657,4.193,4.193,0,0,0-.96.692,4.3,4.3,0,0,0-2.106-.512,3.981,3.981,0,0,0-3.262,1.5l-.058-.131a6.735,6.735,0,0,0-1.177-4.611,48.734,48.734,0,0,0-12.71-8.2c-.053-.053-.1-.115-.152-.166a16.5,16.5,0,0,0-1.679-1.3,3.937,3.937,0,0,0,1.148.179,4,4,0,0,0,3.425-1.964,3.969,3.969,0,0,0,0-4l-.2-.437a3.738,3.738,0,0,0-6.454,0l-.2.438a3.949,3.949,0,0,0-.542,2c0,.087.012.172.017.258a5.591,5.591,0,0,0-3.772-2.548,7.406,7.406,0,0,0-.734-2.706,5.612,5.612,0,0,0-1.413-11.046,5.5,5.5,0,0,0-2.15.44,7.434,7.434,0,0,0-1.445-1.862,4.147,4.147,0,0,0,.239-.406,3.428,3.428,0,0,0,.492-5.755,3.337,3.337,0,0,0,.478-1.177,9.965,9.965,0,0,0,.23-2.751,11.19,11.19,0,0,0-.2-1.62,3.938,3.938,0,0,0-.456-1.2c-.336-.43-.531-.682-.6-.765l0,0c.041.051.136.168.3.371a2.68,2.68,0,0,0-.257-.43,2.941,2.941,0,0,0,.287-.58,6.357,6.357,0,0,0,.313-1.279,3.421,3.421,0,0,0-.54-5.682,6.11,6.11,0,0,0-.92-3.914c.259-.282.548-.568.794-.856a3.685,3.685,0,0,0,2.15-2.3,15.194,15.194,0,0,0,.537-2.051,3.469,3.469,0,0,0,1.347-.819,3.306,3.306,0,0,0,1.017-2.455c-.017-.133-.033-.266-.051-.4l-.123-.909a3.316,3.316,0,0,0-1.342-1.889c.017-.742-.01-1.5-.034-2.145a3.086,3.086,0,0,0,.889-1.286c.126-.335.857-3.931.191-3.5a7.563,7.563,0,0,0,2.981-3.822,2.861,2.861,0,0,0-.319-2.4c.128-.248.246-.516.377-.827.61-1.446-.758-2.5-2.056-2.508a154.549,154.549,0,0,0-6.05,14.354c.051.041.1.086.151.123q.007.337.043.669a3.624,3.624,0,0,0-.588.334,93.4,93.4,0,0,0-4.416,19.215.1.1,0,0,1,.009.012c-.005.008-.009.016-.013.024-.014.124-.032.245-.047.369q-.259,2.2-.376,4.37c.031.094.063.186.1.272-.042.065-.081.133-.118.2-.93,19.6,6.681,37.2,20.545,48.924a4.305,4.305,0,0,0,1.212.11,6.842,6.842,0,0,0,.219,1.06q1.635,1.3,3.378,2.487a79.513,79.513,0,0,0,23.547,10.618,5.207,5.207,0,0,0,.365-.662,3.047,3.047,0,0,0,1.853.572,2.892,2.892,0,0,0,2.611-1.422,5.767,5.767,0,0,0,.342,2.818l.269.061c.806.182,1.807.4,3,.618a65.8,65.8,0,0,0,27.348-1.029c-.029-.123-.048-.249-.088-.369A4.664,4.664,0,0,0,1943.091,1536.391Zm-23.378-7.262c-.012.028-.024.056-.035.084l-.081.1C1919.636,1529.254,1919.679,1529.2,1919.713,1529.129Zm-44.082-20.573c-.006-.015-.011-.031-.018-.046a5.115,5.115,0,0,0-.053-.6,4,4,0,0,0,.876.845A5.453,5.453,0,0,0,1875.631,1508.555Zm23.662,22.584c-.034-.154-.063-.308-.11-.46-.043-.137-.1-.3-.163-.462a3.784,3.784,0,0,0,.325-.247,4.568,4.568,0,0,0,.993.463A3.931,3.931,0,0,0,1899.293,1531.14Z" transform="translate(-1838.328 -1317.107)" fill="#364f21"/>
  <path id="Path_69" data-name="Path 69" d="M2126.424,1285.926c3.634,0,6.579-3.314,6.579-7.4s-2.946-7.4-6.579-7.4-6.581,3.314-6.581,7.4S2122.789,1285.926,2126.424,1285.926Zm2.879-13.161a2.056,2.056,0,1,1-2.057,2.057A2.056,2.056,0,0,1,2129.3,1272.765Z" transform="translate(-2024.54 -1200.047)" fill="#162306"/>
  <path id="Path_70" data-name="Path 70" d="M2147.927,1281.013a2.056,2.056,0,1,0-2.057-2.057A2.056,2.056,0,0,0,2147.927,1281.013Z" transform="translate(-2043.164 -1204.183)" fill="#fff"/>
  <path id="Path_71" data-name="Path 71" d="M2057.092,1278.518c0-4.089-2.946-7.4-6.58-7.4s-6.581,3.314-6.581,7.4,2.947,7.4,6.581,7.4S2057.092,1282.608,2057.092,1278.518Zm-5.757-3.7a2.057,2.057,0,1,1,2.057,2.057A2.057,2.057,0,0,1,2051.334,1274.817Z" transform="translate(-1970.22 -1200.043)" fill="#162306"/>
  <path id="Path_72" data-name="Path 72" d="M2074.073,1278.957a2.057,2.057,0,1,0-2.056,2.057A2.056,2.056,0,0,0,2074.073,1278.957Z" transform="translate(-1988.845 -1204.183)" fill="#fff"/>
  <path id="Path_73" data-name="Path 73" d="M2106.744,1349.712c.059.068.12.134.178.205.409.512,1.284-.165.908-.7a3.779,3.779,0,0,0-1.976-1.44c-.387-.155-.646.4-.387.665a8.4,8.4,0,0,0,.7.692c.08.065.151.138.224.209-2.745,3.63-10.469,6.634-14.492,3.267a3.2,3.2,0,0,1,.347-1.207.317.317,0,0,0-.43-.43,2.23,2.23,0,0,0-1.033,1.262c-.167.494-.225,1.436.3,1.742a.51.51,0,0,0,.5,0c.328-.138.3-.609.3-.887,0-.122.005-.246.013-.373C2099.118,1364.122,2106.187,1361,2106.744,1349.712Z" transform="translate(-2003.66 -1254.88)" fill="#162306"/>
  <path id="Path_74" data-name="Path 74" d="M2271.535,1209.622a146.318,146.318,0,0,0,15.329-17.333c1.335-1.792,2.362-3.654,1.912-5.95a52.66,52.66,0,0,0-3.682-10.6,148.349,148.349,0,0,0-7.41-14.115,40.924,40.924,0,0,0-2.066-5.382c-1.012-2.14-.764-4.14-2.4-6.138a11.783,11.783,0,0,0-4.4-3.363,15.1,15.1,0,0,0-8.3-.939,2.451,2.451,0,0,0-1.81,3.752,7.9,7.9,0,0,0,3.728,3.348,9.912,9.912,0,0,0,7.07.7c.27.259.542.529.823.82.547.567,1.064,1.026,1.543,1.488a160.359,160.359,0,0,0,6.815,16.08,89.645,89.645,0,0,1,4.487,11.334c.708,2.336,1.592,3.891.166,5.954-3.783,5.48-8.747,10.573-13.41,15.341a75.454,75.454,0,0,1-6.223,5.745,8.172,8.172,0,0,1-.808.568c-1.336.846-2.951,1.5-3.845,2.61a1.813,1.813,0,0,0-.042,2.521c1.653,1.479,3.859.8,6.006-.6A46.285,46.285,0,0,0,2271.535,1209.622Z" transform="translate(-2123.663 -1110.232)" fill="#162306"/>
  <path id="Path_75" data-name="Path 75" d="M2098.2,1063.335c2.322.3,4.787.557,7.508.859a57.912,57.912,0,0,0,12.219-.28,7.9,7.9,0,0,1-3.728-3.348,2.451,2.451,0,0,1,1.81-3.752,15.1,15.1,0,0,1,8.3.939,13.3,13.3,0,0,0-1.607-1.378,117.288,117.288,0,0,0-14.457-8.627,12.267,12.267,0,0,1-1.552,2.659c-5.625,5.673-26.747.016-29.582-8.071l.321-.776a44.873,44.873,0,0,1,4.137-4.871,35.087,35.087,0,0,0,13.775,7.744c4.651,1.191,9.2,1.024,13.883.976,2.945-7.745,5.35-20.746-2.336-18.75-.037-13.147-16.408.7-24.875,9.559a83.518,83.518,0,0,0-12.688-3.3c-2.875-.359-10.523-1.335-12.162,1.916a3.581,3.581,0,0,0-.17,2.511c-.2-.229-.4-.455-.588-.687l.6.753c1.114,4.322,7.8,10.408,13.354,14.707a65.185,65.185,0,0,0,7.123,4.938C2085.094,1061.119,2090.922,1062.4,2098.2,1063.335Z" transform="translate(-1979.153 -1021.249)" fill="#af7b74"/>
  <path id="Path_76" data-name="Path 76" d="M2147.432,1083.26a35.081,35.081,0,0,1-13.775-7.744,44.843,44.843,0,0,0-4.137,4.871l-.321.776c2.835,8.087,23.957,13.745,29.582,8.071a12.277,12.277,0,0,0,1.552-2.659c.325-.7.656-1.487.982-2.341C2156.636,1084.283,2152.083,1084.451,2147.432,1083.26Z" transform="translate(-2031.235 -1060.08)" fill="#512019"/>
  <path id="Path_77" data-name="Path 77" d="M1829.3,1361.747c-1.67,2.366-3.459,4.635-5.318,6.847-7.5,8.93-16.157,16.922-22.908,26.453a47.636,47.636,0,0,0-5.37,9,40.045,40.045,0,0,1-3.912,7.253c-.888,1.293-2.092,2.289-3.074,3.506a22.466,22.466,0,0,0-2.317,4.041c-1.23,2.445-1.922,4.553-1.484,7.266.275,1.707,2.563,1.826,3.574.831,3.49-3.429,8.452-7.68,5.586-12.984a1.42,1.42,0,0,0-.253-.331,17.444,17.444,0,0,1,1.336-2.417c3.562-5.267,6.88-10.674,10.664-15.786,3.929-5.305,8.324-10.2,12.562-15.2,4.657-5.5,9.122-11.136,12.557-17.609C1831.521,1361.525,1829.971,1360.8,1829.3,1361.747Z" transform="translate(-1784.787 -1264.582)" fill="#162306"/>
</svg>
