<svg id="pepper" xmlns="http://www.w3.org/2000/svg" width="549.229" height="685.027" viewBox="0 0 549.229 685.027">
  <path id="Path_78" data-name="Path 78" d="M743.962,948.572c-3.8-5.905-6.969-10-10.937-12.1-3.939-2.09-8.669-2.221-15.589-.215-17.113,4.959-35.166,5.466-52.853,4.211a214.918,214.918,0,0,1-58.332-12.051,208.931,208.931,0,0,1-52.516-28.2c-3.311-2.444-6.61-5-9.865-7.645-.7.286-1.393.584-2.1.854q-4.55,1.726-9.187,3.081,5.972,5.8,12.395,11.133c16.534,13.679,35.994,24.236,56.047,31.709a196.314,196.314,0,0,0,62.9,12.555c18.129.512,36.781-2.609,54.612-6.759-3.855,17.275,8.776,36.185,27.434,37.107,2.338.116,4.319-2.15,4.758-4.237C752.921,967.523,749.637,957.383,743.962,948.572Z" transform="translate(-202.185 -354.16)" fill="#ed8c00"/>
  <path id="Path_79" data-name="Path 79" d="M448.056,899.412a12.988,12.988,0,0,0-1.6,1.069c13.52,29.836,40.551,53.974,67.912,69.1a240.3,240.3,0,0,0,109.884,29.749c-2.206,2.991-1.143,3.35-2.876,6.631-3.34,6.3-3.393,13.355-3.008,20.309.385,6.928,4,17.341,12.969,14.538,7.223-2.258,10.726-11.71,12.414-18.258,2.237-8.7,2.423-18.552-.425-27.155-1.815-5.5-5.175-7-9.257-7.236-3.432-.194-7.377.516-11.342.519-13.871,0-27.6-2.5-41.041-5.764-20.332-4.946-39.884-13.151-58.275-23.057-26.554-14.3-52.325-34.3-69.3-59.874C452.179,898.977,450.214,898.2,448.056,899.412Z" transform="translate(-173.27 -356.246)" fill="#ed8c00"/>
  <path id="Path_80" data-name="Path 80" d="M161.2,343.933c9.2-8,18.461-7.981,28.754-10.047-4.882-6.568-13.909-13.524-23.531-19.739-14.713,7.624-3.3,11.908-9.91,16.481s-19.811,6.786-20.981,7.2c5.872,1.514,13.823,5.571,21.9,9.253C158.537,346.073,159.786,345.03,161.2,343.933Z" transform="translate(-68.884 -159.964)" fill="#ed8c00"/>
  <path id="Path_81" data-name="Path 81" d="M358.953,296.7c10.909,5.688,13.1,11.854,11.123,17.593,13.416-4.132,26.283-7.573,40.214-9.364,16.117-2.624,25.642-2.161,36.306,1.06a55.39,55.39,0,0,0-21.457-14.055,35.34,35.34,0,0,0-17.8-1.473c-5.779.969-11.331,3.628-17.234,1.775-5.774-1.81-10.138-7.03-15.746-9.342a63.9,63.9,0,0,0-16.311,13.392C358.351,296.42,358.657,296.554,358.953,296.7Z" transform="translate(-143.587 -149.473)" fill="#ed8c00"/>
  <path id="Path_82" data-name="Path 82" d="M241.364,708.348c15.532,64.742,65.557,101.875,111.5,144.947.92-.369,1.837-.751,2.755-1.176,5.76-2.668,12.245-4.8,16.443-9.737.329-.389.664-.785,1-1.183-11.356-22.7-21.229-46.185-38.126-63.564C307.462,749.377,264.712,740.194,241.364,708.348Z" transform="translate(-104.414 -292.308)" fill="#ed8c00"/>
  <path id="Path_83" data-name="Path 83" d="M209.345,325.48a21.667,21.667,0,0,1,4.342-9.892c-.54-1.119-1.134-2.226-1.59-3.349a178.1,178.1,0,0,1-6.95-20.586,103.867,103.867,0,0,0-23.109,14.941c9.623,6.215,18.649,13.172,23.531,19.739C206.809,326.083,208.067,325.809,209.345,325.48Z" transform="translate(-84.497 -152.412)" fill="#f4a300"/>
  <path id="Path_84" data-name="Path 84" d="M275.963,295.159c2.482,2.791,5.94,4.931,9.08,6.878,8.759-8.461,30.1-14.7,41.286-9.975A63.886,63.886,0,0,1,342.64,278.67a112.816,112.816,0,0,0-21.534-6.143c-18.827-3.624-38.8-2.577-57.529,1.43.042.124.079.249.124.374A64.86,64.86,0,0,0,275.963,295.159Z" transform="translate(-111.872 -145.246)" fill="#f4a300"/>
  <path id="Path_85" data-name="Path 85" d="M376.884,698.169c18.056-7.441,33.146-21.248,40.008-39.787,8.453-22.838,2.845-47.711-4.451-70.026-11.495-35.143-21.607-70.643-27.758-107.142-4.637-27.523-4.358-55.485-9.992-82.887-4.257-20.739-10.678-41.5-20.79-60.168a97.742,97.742,0,0,0-15.695-21.89c-10.664-3.221-20.189-3.684-36.306-1.06-13.931,1.79-26.8,5.231-40.214,9.364-3.32,9.605-18.346,18.022-23.889,21.03-9.738,6.3-20.388,9.038-31.041,11.781-5.917,1.525-12.172-3.174-16.6-.772-4.733,1.22-6.455,9.236-10.883,11.638-8.852,4.8-37.175,17.136-37.367-2.945a21.308,21.308,0,0,1-2.333.157,9.113,9.113,0,0,1-1.041-.052c-17.012.436-29.966-4.819-14.783-18.546-8.076-3.682-16.026-7.739-21.9-9.253-22.4,7.831-41.643,25.315-52.628,46.033C24.193,430.85,36.785,491.721,55.034,538.965A333.116,333.116,0,0,0,155.158,676.614c21.461,17.362,46,31.832,72.313,40.421,13.185,4.3,27.631,8.2,41.6,7.134a48.621,48.621,0,0,0,14.572-3.432c-45.943-43.071-95.968-80.2-111.5-144.947,23.348,31.847,66.1,41.029,93.568,69.287,16.9,17.379,26.77,40.861,38.126,63.563a30.534,30.534,0,0,1,4.544-4.655,12.987,12.987,0,0,1,1.6-1.069c2.158-1.214,4.122-.434,6.061.568.79.41,1.576.854,2.369,1.22,6.888,3.171,13.123,2.917,20.551,2.31A132.513,132.513,0,0,0,365.6,702.1q4.638-1.363,9.187-3.081C375.492,698.753,376.187,698.455,376.884,698.169ZM154.83,507.948c-17.091-2.256-25.644-25.452-27.344-40-.18-1.532,2.118-1.779,2.569-.413a69.409,69.409,0,0,0,10.023,18.515c3.43,4.54,8.087,11.481,13.931,13.149,7.425,2.118,12.395-4.956,14.73-11.177,4.032-10.745.329-22.2.383-33.225a.889.889,0,0,1,1.637-.487c5.8,10.647,8.661,27.141,4.046,38.754C171.639,501.045,164.214,509.185,154.83,507.948Zm66.43-4.438a28.585,28.585,0,0,1-3.042,5.116c-.83,22.128-20.476,23.647-29.075,9.146a29.193,29.193,0,0,1-7.034-3.269c-.9-.573-.02-2.033.931-1.594A30.061,30.061,0,0,0,219.9,502.7C221.234,500.771,222.241,501.4,221.259,503.51Zm30.082-30.157c-3.171,7.982-10.594,16.12-19.981,14.882-17.088-2.254-25.644-25.451-27.344-40-.177-1.534,2.118-1.78,2.575-.413a69.165,69.165,0,0,0,10.017,18.515c3.43,4.539,8.087,11.483,13.931,13.149,7.429,2.118,12.4-4.955,14.733-11.177,4.032-10.744.329-22.2.383-33.225a.889.889,0,0,1,1.637-.488C253.1,445.248,255.953,461.74,251.341,473.353Zm26.2-139.381c-1.317,2.232,39.108-2.5,48.951,6.32,30.448,30.016,27.783,93.168,36.981,136.229.13.652.273,1.321.417,2a408.452,408.452,0,0,0,8.244,48.045q.747,3.287,1.534,6.566c-7.521-15.867-14.708-31.877-20.214-48.6-4.938-15-7.915-30.566-12.31-45.73a306.027,306.027,0,0,0-15.082-41.32c-11.049-24.37-28.03-44.492-48.694-61.024Z" transform="translate(-35.199 -159.75)" fill="#f4a300"/>
  <path id="Path_86" data-name="Path 86" d="M289.287,329.475a64.837,64.837,0,0,1-12.113,4.74,5.72,5.72,0,0,0,8.472,2.144c.318-.2.642-.394.965-.591a6.308,6.308,0,0,0,7.536-1.1,18.856,18.856,0,0,1,2.738-2.428c1.806,2.571,5.568,3.924,8.3,1.6q4.55-3.87,9.406-7.338a5.942,5.942,0,0,0,2.265-.342c.605-.223,4.01-1.394,4.617-2.114a8.2,8.2,0,0,0,2.7-.911c1.891,4.1,7.235,3.241,9.136-.321a9.971,9.971,0,0,0-.034-10.041,4.306,4.306,0,0,0-2.546-3.345c-.048-.023-.1-.039-.149-.062a20.922,20.922,0,0,0-12.842-5.563c-8.163-.282-19.012,3.187-23.936,10.4-.07.013-.141.03-.214.043-.667.108-1.339.188-2.009.269C297.837,318.522,301.321,322.065,289.287,329.475Z" transform="translate(-116.437 -156.484)" fill="#546d29"/>
  <path id="Path_87" data-name="Path 87" d="M230.132,337.782c.278.623.563,1.189.861,1.728a29.626,29.626,0,0,0-.189-7.217A5.031,5.031,0,0,0,230.132,337.782Z" transform="translate(-100.47 -166.056)" fill="#546d29"/>
  <path id="Path_88" data-name="Path 88" d="M200.109,371.78a4.369,4.369,0,0,0,1.919-4.473,33.2,33.2,0,0,0,4.9-1.827,12.609,12.609,0,0,0,1.238,1.356c2.473,2.249,6.232,1.407,8.292-.864A165.5,165.5,0,0,1,229.567,353,4.883,4.883,0,0,0,235.3,351c.267-.419.546-.828.83-1.228-11,2.425-22.24,2.762-22.3-4.85-.005-.337,0-.683.011-1.031-2.572,1-5.107,2.1-7.636,3.264-1.443.664-2.91,1.412-4.392,2.186a12.78,12.78,0,0,0-2.484-.662c-4.859-.77-9.7,1.833-13.25,4.9a21.268,21.268,0,0,0-7.355,11.932c-.976,5.192,3,9.576,7.943,10.093a9.127,9.127,0,0,0,1.041.052,21.309,21.309,0,0,0,2.333-.157A22.947,22.947,0,0,0,200.109,371.78Z" transform="translate(-83.334 -169.951)" fill="#546d29"/>
  <path id="Path_89" data-name="Path 89" d="M205.742,245.215a21.66,21.66,0,0,0-4.342,9.892c-1.277.329-2.535.6-3.776.854-10.293,2.066-19.553,2.049-28.754,10.047-1.416,1.1-2.664,2.14-3.77,3.144-15.182,13.727-2.228,18.982,14.783,18.546-4.947-.517-8.92-4.9-7.943-10.093a21.263,21.263,0,0,1,7.355-11.932c3.545-3.07,8.39-5.672,13.25-4.9a12.719,12.719,0,0,1,2.484.662c1.483-.774,2.949-1.523,4.392-2.186,2.53-1.166,5.065-2.267,7.636-3.264-.011.348-.017.693-.011,1.031.062,7.612,11.306,7.274,22.3,4.85-.284.4-.563.808-.83,1.228a4.883,4.883,0,0,1-5.735,1.992,165.525,165.525,0,0,0-13.112,12.978c-2.06,2.27-5.819,3.112-8.292.864a12.81,12.81,0,0,1-1.238-1.356,33.166,33.166,0,0,1-4.9,1.827,4.369,4.369,0,0,1-1.919,4.473,22.957,22.957,0,0,1-10.07,3.726c.191,20.082,28.514,7.746,37.367,2.945,4.429-2.4,6.15-10.418,10.883-11.638,4.432-2.4,10.687,2.3,16.6.772,10.653-2.743,21.3-5.486,31.041-11.781,5.543-3.007,20.568-11.425,23.889-21.03,1.981-5.739-.214-11.906-11.123-17.593-.3-.148-.6-.282-.909-.413-11.184-4.728-32.527,1.514-41.286,9.975-3.14-1.946-6.6-4.086-9.08-6.878a64.884,64.884,0,0,1-12.262-20.828c-.044-.125-.082-.25-.124-.374-5.6-15.588-2.214-32.092,2.873-47.283,8.925-26.637,26.944-50.655,56.145-55.2,4.561-.711,10.535-1.074,14.744,1.209a5.306,5.306,0,0,1,2.172,2.3c-.346.919-1.182,3.682-1.2,2.7-.068-4.144-11.41,5.616-10.594,14.345.7,7.528,9.865,11.729,16.384,12.332,14.835,1.378,22.876-11.245,22.175-24.641a28.278,28.278,0,0,0-1.9-8.84c-4.361-11.275-15.476-19.514-27.076-23.227C275.843,76.077,250.2,90.917,231.5,107.9c-18.064,16.4-32.884,36.919-37.474,61.265-3.238,17.189-1.412,35.1,3.174,52.115a178.11,178.11,0,0,0,6.95,20.586C204.608,242.989,205.2,244.1,205.742,245.215Zm1.333,10.278c-.3-.539-.583-1.105-.861-1.728a5.03,5.03,0,0,1,.672-5.489A29.592,29.592,0,0,1,207.075,255.492ZM253.7,239.8c.073-.013.143-.031.214-.043,4.924-7.215,15.774-10.683,23.936-10.4a20.924,20.924,0,0,1,12.842,5.563c.048.023.1.04.149.062a4.3,4.3,0,0,1,2.546,3.345,9.971,9.971,0,0,1,.034,10.041c-1.9,3.562-7.245,4.42-9.136.321a8.2,8.2,0,0,1-2.7.911c-.608.721-4.013,1.891-4.617,2.114a5.955,5.955,0,0,1-2.265.342q-4.861,3.455-9.406,7.338c-2.729,2.325-6.491.972-8.3-1.6a18.892,18.892,0,0,0-2.738,2.428,6.309,6.309,0,0,1-7.535,1.1c-.323.2-.647.39-.965.591a5.72,5.72,0,0,1-8.472-2.144,64.885,64.885,0,0,0,12.113-4.74c12.035-7.41,8.551-10.954,2.293-14.962C252.365,239.986,253.038,239.906,253.7,239.8Z" transform="translate(-76.553 -82.039)" fill="#364f21"/>
  <path id="Path_90" data-name="Path 90" d="M330.972,496.07c-.054,11.028,3.65,22.48-.383,33.225-2.336,6.222-7.3,13.294-14.733,11.177-5.844-1.666-10.5-8.61-13.931-13.149a69.156,69.156,0,0,1-10.017-18.515c-.456-1.367-2.752-1.121-2.575.413,1.7,14.547,10.256,37.744,27.344,40,9.387,1.238,16.809-6.9,19.981-14.882,4.612-11.612,1.756-28.105-4.049-38.754A.889.889,0,0,0,330.972,496.07Z" transform="translate(-120.516 -220.734)" fill="#995700"/>
  <path id="Path_91" data-name="Path 91" d="M217.4,525.258a.889.889,0,0,0-1.637.487c-.054,11.028,3.65,22.48-.383,33.225-2.336,6.22-7.3,13.294-14.73,11.177-5.844-1.668-10.5-8.608-13.931-13.149a69.405,69.405,0,0,1-10.023-18.515c-.45-1.366-2.749-1.119-2.569.413,1.7,14.547,10.253,37.744,27.344,40,9.383,1.236,16.809-6.9,19.975-14.884C226.057,552.4,223.2,535.9,217.4,525.258Z" transform="translate(-81.836 -230.697)" fill="#995700"/>
  <path id="Path_92" data-name="Path 92" d="M293.963,597.733A30.06,30.06,0,0,1,257.1,607.94c-.951-.439-1.831,1.021-.931,1.594A29.207,29.207,0,0,0,263.2,612.8c-.248-.417-.49-.838-.715-1.281l3.562.766c10.863-.274,16.022-1.5,26.253-10.759.011.731,0,1.44-.025,2.13a28.562,28.562,0,0,0,3.042-5.115C296.3,596.428,295.294,595.8,293.963,597.733Z" transform="translate(-109.258 -254.783)" fill="#cc1d00"/>
  <g id="Group_4" data-name="Group 4" transform="translate(153.23 346.745)">
    <path id="Path_93" data-name="Path 93" d="M269.435,614.792l-3.562-.766c.225.443.467.865.715,1.281,8.6,14.5,28.244,12.982,29.075-9.146.025-.69.037-1.4.025-2.13C285.456,613.295,280.3,614.518,269.435,614.792Z" transform="translate(-265.873 -604.032)" fill="#cc1d00"/>
  </g>
  <g id="Group_5" data-name="Group 5" transform="translate(242.172 174.221)">
    <path id="Path_94" data-name="Path 94" d="M463.543,449.143c4.4,15.164,7.372,30.734,12.31,45.73,5.507,16.72,12.693,32.73,20.214,48.6q-.789-3.278-1.534-6.566a408.452,408.452,0,0,1-8.244-48.045c-.143-.678-.287-1.347-.417-2-9.2-43.061-6.533-106.212-36.981-136.229-9.843-8.822-50.267-4.087-48.951-6.32l-.175,2.487c20.664,16.532,37.645,36.654,48.694,61.024A306.03,306.03,0,0,1,463.543,449.143Z" transform="translate(-399.766 -344.312)" fill="#fff"/>
  </g>
</svg>
