<svg id="redish" xmlns="http://www.w3.org/2000/svg" width="192.032" height="360.241" viewBox="0 0 192.032 360.241">
  <path id="Path_122" data-name="Path 122" d="M847.043,426.234c-33.64-.074-63.65-7.405-80.145-41.77-13.252-27.331-11.111-51.314.136-70.124-20.919,20.2-29.639,50.034-12.441,85.5,13.2,27.5,35.06,37.681,60.5,40.691-2.556,4.674-4.258,10.144-5.964,14.82-1.412,3.871-2.842,7.733-3.972,11.7a126.694,126.694,0,0,0-2.443,12.75c-1.51,8.417-10.725,43.123-12.91,44.405-.977.574-2.806-.081-3.889,0a14.165,14.165,0,0,0-4.526,1.334A36.025,36.025,0,0,0,771.18,531.8c-3.689,3.394.086,7.922,3.852,8.378,6.844.829,11.828-3.209,16.4-7.542a4.727,4.727,0,0,0,1.226-1.856,2.07,2.07,0,0,0,.959-1.391c1.576-7.465,17.77-54.545,19.229-58.08,1.662-4.033,3.1-8.129,4.554-12.242,1.945-5.514,4.6-11.746,5.484-17.823,3.887.248,7.843.364,11.85.373a96.713,96.713,0,0,0,12.9.289c1.576,5.018,4.19,9.985,5.676,14.8,2.237,7.247,4.029,14.634,6.163,21.913,2.193,7.484,4.528,14.582,5.8,22.3.958,5.817,1.648,12.265,3.335,18.119-6.739.477-12.011,4.865-14.776,11.3a4.25,4.25,0,0,0,4.13,5.966c6.491-.178,15.049-7.44,15.637-14.249.244-2.851-1.348-7.246-1.828-10.12-.657-3.934-1.488-7.836-2.119-11.775-1.324-8.267-1.28-16.421-2.113-24.731a110.538,110.538,0,0,0-5.213-23.389,102.538,102.538,0,0,0-3.946-10.908c19.179-1.034,47.914-6.542,65.655-35.839-18.1,17.087-40.995,20.07-56.3,20.589A98.528,98.528,0,0,1,847.043,426.234Z" transform="translate(-745.452 -180.043)" fill="#c43b3b"/>
  <path id="Path_123" data-name="Path 123" d="M845.558,514.979c.008.026.02.05.028.075C845.614,515.1,845.618,515.073,845.558,514.979Z" transform="translate(-798.226 -285.817)" fill="#db5e5e"/>
  <path id="Path_124" data-name="Path 124" d="M845.456,514.273a1.053,1.053,0,0,0,.042.326l.006.007A1.1,1.1,0,0,1,845.456,514.273Z" transform="translate(-798.172 -285.444)" fill="#db5e5e"/>
  <path id="Path_125" data-name="Path 125" d="M850.5,263.914c-.969-2.906-1.86-5.907-2.661-8.982-25.5,1.683-50.248,11.693-67.087,27.955-11.248,18.81-13.388,42.793-.136,70.124,16.495,34.365,46.5,41.7,80.145,41.77a98.534,98.534,0,0,0,20.7-.354c15.3-.52,38.2-3.5,56.3-20.589,13.743-22.252,13.214-54.069-1.8-77.734-18.774-29.5-50.834-41.975-82.538-41.406a16.83,16.83,0,0,0-.867,6.14Zm-63.8,74.465a1.611,1.611,0,0,1,1.438-2.832c.831.2,1.636.28,2.475.509a8.963,8.963,0,0,1,2.59,1.252,2.059,2.059,0,0,1-1.316,3.723,7.125,7.125,0,0,1-3.262-1.062A18.169,18.169,0,0,1,786.7,338.379Zm8.213,14.811c-1.733,1.306-3.747.021-5.283-.978a1.644,1.644,0,0,1,1.428-2.959c1.166.423,2.666.662,3.587,1.527a3.923,3.923,0,0,1,.609.55A1.342,1.342,0,0,1,794.916,353.19Zm8.408,9.838c3.012-1.93,7.623-.75,9.915,1.689a2.183,2.183,0,0,1-1.734,3.616,12.392,12.392,0,0,1-4.785-1.069,20.8,20.8,0,0,1-3.539-1.565A1.564,1.564,0,0,1,803.323,363.029Zm10.553,17.9a6.668,6.668,0,0,1-4.778-.7,5.058,5.058,0,0,1-2.081-1.56,3.451,3.451,0,0,1-.483-.832.432.432,0,0,1-.034-.082,1.582,1.582,0,0,0-.172-.214c-.9-.962.258-2.3,1.332-2.186.018,0,.028.005.044.007l.034-.014a3.037,3.037,0,0,1,1.11-.141,5.115,5.115,0,0,1,2.221.574,8.183,8.183,0,0,1,3.567,2.542A1.726,1.726,0,0,1,813.876,380.926Zm3.815-62.581a13.563,13.563,0,0,1,1.71-6.607,29.042,29.042,0,0,1-11.1-5.47c-.444-.339.108-.956.553-.649a31.174,31.174,0,0,0,11.438,4.737,13.685,13.685,0,0,1,1.572-1.816c-2.58-1.433-5.247-3.358-5.766-6.338-.1-.548.659-.613.869-.2,1.4,2.737,3.677,4.029,6.184,5.444q.436-.329.9-.623a16.087,16.087,0,0,1-1.929-3.281,9.112,9.112,0,0,1-1.024-5.779.4.4,0,0,1,.785.033,22.435,22.435,0,0,0,1.51,5.279,27.64,27.64,0,0,0,2.013,3,13.629,13.629,0,1,1-7.714,12.27Zm21.159,68.212c-4.594-.54-8.758-1.675-11.791-5.319-.981-1.177.056-2.826,1.378-3.024a19.807,19.807,0,0,1,12.285,2A3.35,3.35,0,0,1,838.85,386.557Zm21.315-12.442c-2.283,2.553-7.635.715-10.222-.478-1.318-.608-1.823-2.594-.253-3.322,2.928-1.357,9.335-2.811,10.975,1.178A2.3,2.3,0,0,1,860.166,374.115Zm21.642,11.723c-2.213,1.25-4.358.148-6.581-.429-1.809-.47-3.99-.757-5.165-2.376a2.294,2.294,0,0,1-.266-2.728c1.47-2.058,4.348-2.657,6.771-2.557,3.036.125,6.116.764,7.066,4.056A3.662,3.662,0,0,1,881.808,385.838Zm8.18-29.239a32.136,32.136,0,0,0-4.925-1.162c-1.564-.165-1.132-2.461.256-2.608,1.925-.2,3.661-.6,5.564-.015C893.259,353.545,892.432,357.25,889.987,356.6Zm43.443-27.265a1.991,1.991,0,0,1-1.047,2.6c-1.8.736-4.172-.478-5.846-1.075a1.432,1.432,0,0,1-.026-2.628C928.7,327.454,932.158,326.678,933.43,329.333ZM924.8,311.653a26.953,26.953,0,0,0,3.387,1.248c1.06.426,2.507,1.565,1.827,2.872-.807,1.546-3.149.6-4.172-.077a8.08,8.08,0,0,1-2.3-2.79A.928.928,0,0,1,924.8,311.653Zm-6.232,33.63a.576.576,0,0,1,.328.005l.128-.123a5.219,5.219,0,0,1,.713-.473,4.645,4.645,0,0,1,2.331-.365,8.189,8.189,0,0,1,3.863,1.395,2.46,2.46,0,0,1,.741,3.335,2.422,2.422,0,0,1-2.776,1c-1.022-.384-2.037-.69-3.072-1.026a4.928,4.928,0,0,1-1.51-.667,2.1,2.1,0,0,1-.384-.322c-.042-.009-.082-.018-.132-.032C917.368,347.785,916.91,345.542,918.564,345.282Zm-2.61,24.8a2.094,2.094,0,0,1-.969,2.758c-1.838.88-3.724.033-5.557-.513a45.223,45.223,0,0,1-4.835-1.352c-1.384-.591-1.883-2.821-.212-3.482C907.5,366.259,914.4,366.512,915.954,370.083Zm-12.166-37.018c1.913-.2,3.938-.69,5.78.026,1.252.487.727,2.194-.262,2.582-1.653.647-3.733.092-5.444-.085A1.263,1.263,0,0,1,903.789,333.064ZM875.832,308.3a13.564,13.564,0,0,1,9.515,3.9,13.875,13.875,0,0,0,1.836-1.927,22.482,22.482,0,0,0,2.417-4.93.4.4,0,0,1,.779.105,9.116,9.116,0,0,1-2.027,5.508,20.674,20.674,0,0,1-1.935,2.394c.022.031.048.058.07.09.253.315.487.644.711.981,2.5-.883,4.765-1.793,6.5-4.075.282-.372,1.013-.174.823.348-1,2.747-3.807,4.172-6.515,5.126a13.486,13.486,0,0,1,.867,2.163,31.184,31.184,0,0,0,12.175-2.651c.493-.222.927.482.431.737a28.972,28.972,0,0,1-12.225,3.448,13.637,13.637,0,1,1-13.42-11.218Zm-13.861,35.171a.943.943,0,0,1,1.885,0c.489,9.214-9.96,12.692-13.823,5.933-4,7.108-15.9-.055-14.368-8.994.116-.675,1.284-.7,1.38,0,.4,2.919,1.416,5.637,3.8,7.524,3.184,2.522,7.367,2.776,7.957-2.31.144-1.242,2.019-1.732,2.341-.316C852.98,353.409,861.856,350.868,861.971,343.468Z" transform="translate(-759.174 -148.591)" fill="#db5e5e"/>
  <path id="Path_126" data-name="Path 126" d="M1028.141,54.365C1018.912,31.806,982,24.628,961.489,34.882c-39.677,19.838-42.8,65.787-33.424,101.764.8,3.074,1.692,6.075,2.661,8.982l2.051-3.076a16.833,16.833,0,0,1,.867-6.14c6.667-19.725,48.71-22.171,30.921-50.259,14.356,7.178,36.915,5.127,30.762-15.381,5.127,1.026,7.178,5.127,12.305,7.178C1026.089,83.077,1037.366,75.9,1028.141,54.365ZM982.722,44.7c-13.973.06-25.025,7.558-31.057,20.019-6.192,12.791-8.149,27.265-9.9,41.226-.807,6.427-1.334,13.043-2.251,19.573C934.64,130,929.6,139.8,929.7,139.474c4.178-14.014,2.391-28.774,4.614-43.162,2.3-14.91,5.83-31.631,15.706-43.559C960.052,40.634,975.027,36.5,990.25,39.927c13.763,3.1,31.8,11.975,33.8,27.708a1.046,1.046,0,0,1-2.029.387C1017.956,51.495,998.089,44.639,982.722,44.7Z" transform="translate(-839.394 -30.304)" fill="#546d29"/>
  <path id="Path_127" data-name="Path 127" d="M1028.77,77.459a1.046,1.046,0,0,0,2.029-.387c-2-15.733-20.037-24.611-33.8-27.708-15.223-3.425-30.2.708-40.232,12.827-9.876,11.928-13.4,28.649-15.706,43.559-2.223,14.388-.436,29.147-4.614,43.162-.1.325,4.941-9.474,9.816-13.952.917-6.53,1.444-13.146,2.251-19.573,1.75-13.961,3.707-28.436,9.9-41.226C964.445,61.7,975.5,54.2,989.47,54.142,1004.836,54.075,1024.7,60.932,1028.77,77.459Z" transform="translate(-846.141 -39.741)" fill="#364f21"/>
  <path id="Path_128" data-name="Path 128" d="M976.976,391.746a13.628,13.628,0,0,0,13.42-16.058,28.97,28.97,0,0,0,12.225-3.448c.5-.255.062-.959-.431-.737a31.184,31.184,0,0,1-12.175,2.651,13.515,13.515,0,0,0-.867-2.163c2.708-.955,5.513-2.379,6.515-5.126.19-.522-.541-.719-.823-.347-1.732,2.281-4,3.191-6.5,4.075-.224-.337-.459-.666-.711-.981a5.171,5.171,0,1,1-.857-.974,5.058,5.058,0,0,1,.787.884,20.729,20.729,0,0,0,1.935-2.394,9.119,9.119,0,0,0,2.027-5.508.4.4,0,0,0-.779-.105,22.485,22.485,0,0,1-2.417,4.93,13.868,13.868,0,0,1-1.836,1.927,13.629,13.629,0,1,0-9.515,23.378Z" transform="translate(-860.319 -204.765)" fill="#722020"/>
  <path id="Path_129" data-name="Path 129" d="M885.839,366.032a13.613,13.613,0,0,0-19.561-12.27,27.655,27.655,0,0,1-2.013-3,22.439,22.439,0,0,1-1.51-5.279.4.4,0,0,0-.785-.033,9.105,9.105,0,0,0,1.024,5.779,16.066,16.066,0,0,0,1.929,3.281c-.308.2-.607.4-.9.623-2.507-1.415-4.784-2.708-6.185-5.444-.21-.416-.965-.35-.869.2.519,2.979,3.186,4.9,5.766,6.338a13.683,13.683,0,0,0-1.572,1.816,31.175,31.175,0,0,1-11.438-4.737c-.444-.306-1,.311-.553.649a29.042,29.042,0,0,0,11.1,5.47,13.637,13.637,0,1,0,25.565,6.608Zm-7.178-10.049a5.024,5.024,0,1,1-5.025,5.024A5.024,5.024,0,0,1,878.661,355.983Z" transform="translate(-800.047 -196.278)" fill="#722020"/>
  <path id="Path_130" data-name="Path 130" d="M1000.247,374.15a5.037,5.037,0,1,0,4.2,2.269c-.022-.032-.048-.059-.07-.09a5.058,5.058,0,0,0-.787-.884A4.992,4.992,0,0,0,1000.247,374.15Z" transform="translate(-877.127 -211.574)" fill="#fff"/>
  <circle id="Ellipse_1" data-name="Ellipse 1" cx="5.025" cy="5.025" r="5.025" transform="translate(73.59 159.705)" fill="#fff"/>
  <path id="Path_131" data-name="Path 131" d="M920.212,440.632c-.591,5.086-4.773,4.832-7.957,2.31-2.383-1.887-3.4-4.605-3.8-7.524-.1-.7-1.264-.675-1.38,0-1.536,8.94,10.366,16.1,14.368,8.994,3.863,6.759,14.312,3.28,13.823-5.933a.943.943,0,0,0-1.885,0c-.114,7.4-8.991,9.94-10.829,1.836C922.231,438.9,920.356,439.39,920.212,440.632Z" transform="translate(-830.586 -243.602)" fill="#722020"/>
  <path id="Path_132" data-name="Path 132" d="M985.8,514.956c-2.423-.1-5.3.5-6.771,2.557a2.294,2.294,0,0,0,.266,2.728c1.175,1.619,3.357,1.906,5.165,2.376,2.223.577,4.368,1.679,6.581.429a3.666,3.666,0,0,0,1.825-4.035C991.915,515.72,988.837,515.081,985.8,514.956Z" transform="translate(-868.407 -285.799)" fill="#c43b3b"/>
  <path id="Path_133" data-name="Path 133" d="M902.261,517.682a19.808,19.808,0,0,0-12.285-2c-1.322.2-2.359,1.847-1.378,3.024,3.032,3.643,7.2,4.779,11.791,5.319A3.35,3.35,0,0,0,902.261,517.682Z" transform="translate(-820.712 -286.06)" fill="#c43b3b"/>
  <path id="Path_134" data-name="Path 134" d="M935.808,497.669c-1.57.728-1.065,2.714.252,3.322,2.588,1.192,7.939,3.031,10.222.478a2.3,2.3,0,0,0,.5-2.622C945.143,494.858,938.735,496.312,935.808,497.669Z" transform="translate(-845.29 -275.944)" fill="#c43b3b"/>
  <path id="Path_135" data-name="Path 135" d="M846.084,488.068a2.183,2.183,0,0,0,1.734-3.616c-2.293-2.44-6.9-3.619-9.915-1.689a1.565,1.565,0,0,0-.142,2.672A20.8,20.8,0,0,0,841.3,487,12.4,12.4,0,0,0,846.084,488.068Z" transform="translate(-793.754 -268.325)" fill="#c43b3b"/>
  <path id="Path_136" data-name="Path 136" d="M849.562,510.146a5.115,5.115,0,0,0-2.221-.574,3.037,3.037,0,0,0-1.11.141l-.034.014c-.016,0-.026-.005-.044-.007-1.074-.113-2.231,1.224-1.332,2.186a1.593,1.593,0,0,1,.172.214,1.067,1.067,0,0,1-.042-.326,1.1,1.1,0,0,0,.048.334c.06.094.056.119.028.075a3.434,3.434,0,0,0,.483.832,5.069,5.069,0,0,0,2.081,1.56,6.666,6.666,0,0,0,4.778.7,1.724,1.724,0,0,0,.759-2.611A8.17,8.17,0,0,0,849.562,510.146Z" transform="translate(-797.668 -282.966)" fill="#c43b3b"/>
  <path id="Path_137" data-name="Path 137" d="M845.545,514.963a.434.434,0,0,0,.034.082c-.008-.025-.02-.049-.028-.075Z" transform="translate(-798.219 -285.808)" fill="#c43b3b"/>
  <path id="Path_138" data-name="Path 138" d="M1051.384,492.529c-1.671.661-1.172,2.89.212,3.482a45.1,45.1,0,0,0,4.834,1.352c1.834.547,3.719,1.394,5.557.513a2.094,2.094,0,0,0,.969-2.758C1061.4,491.548,1054.5,491.295,1051.384,492.529Z" transform="translate(-906.179 -273.628)" fill="#c43b3b"/>
  <path id="Path_139" data-name="Path 139" d="M1081.616,447.939c.05.014.09.023.132.032a2.1,2.1,0,0,0,.385.322,4.928,4.928,0,0,0,1.51.667c1.035.336,2.051.643,3.073,1.026a2.422,2.422,0,0,0,2.776-1,2.46,2.46,0,0,0-.741-3.335,8.188,8.188,0,0,0-3.863-1.395,4.645,4.645,0,0,0-2.331.365,5.27,5.27,0,0,0-.713.473l-.128.123a.58.58,0,0,0-.328-.005C1079.73,445.47,1080.188,447.713,1081.616,447.939Z" transform="translate(-921.995 -248.519)" fill="#c43b3b"/>
  <path id="Path_140" data-name="Path 140" d="M1016.423,461.892c-1.9-.587-3.639-.187-5.564.015-1.388.146-1.82,2.443-.256,2.608a32.139,32.139,0,0,1,4.925,1.162C1017.969,466.327,1018.8,462.622,1016.423,461.892Z" transform="translate(-884.711 -257.668)" fill="#c43b3b"/>
  <path id="Path_141" data-name="Path 141" d="M1050.07,422.594c1.71.177,3.791.732,5.443.085.99-.388,1.515-2.1.262-2.582-1.843-.716-3.868-.225-5.78-.026A1.263,1.263,0,0,0,1050.07,422.594Z" transform="translate(-905.38 -235.598)" fill="#c43b3b"/>
  <path id="Path_142" data-name="Path 142" d="M1095.228,379.088c1.023.677,3.365,1.623,4.172.077.681-1.307-.767-2.445-1.826-2.872a26.877,26.877,0,0,1-3.387-1.248.927.927,0,0,0-1.261,1.253A8.133,8.133,0,0,0,1095.228,379.088Z" transform="translate(-928.566 -211.984)" fill="#c43b3b"/>
  <path id="Path_143" data-name="Path 143" d="M1098.445,412.045c1.674.6,4.05,1.811,5.846,1.075a1.991,1.991,0,0,0,1.047-2.6c-1.276-2.656-4.731-1.879-6.92-1.1A1.433,1.433,0,0,0,1098.445,412.045Z" transform="translate(-931.083 -229.776)" fill="#c43b3b"/>
  <path id="Path_144" data-name="Path 144" d="M809.446,427.412a8.938,8.938,0,0,0-2.59-1.252c-.839-.228-1.645-.312-2.475-.509a1.611,1.611,0,0,0-1.438,2.832,18.215,18.215,0,0,0,1.925,1.589,7.118,7.118,0,0,0,3.262,1.062A2.059,2.059,0,0,0,809.446,427.412Z" transform="translate(-775.415 -238.695)" fill="#c43b3b"/>
  <path id="Path_145" data-name="Path 145" d="M813.926,456.082c-.922-.865-2.421-1.1-3.587-1.527a1.644,1.644,0,0,0-1.428,2.959c1.536,1,3.551,2.284,5.283.978a1.342,1.342,0,0,0,.34-1.861A3.97,3.97,0,0,0,813.926,456.082Z" transform="translate(-778.452 -253.893)" fill="#c43b3b"/>
</svg>
